<?xml version="1.0" encoding="UTF-8" standalone="no"?>
<svg
   xmlns:dc="http://purl.org/dc/elements/1.1/"
   xmlns:cc="http://creativecommons.org/ns#"
   xmlns:rdf="http://www.w3.org/1999/02/22-rdf-syntax-ns#"
   xmlns:svg="http://www.w3.org/2000/svg"
   xmlns="http://www.w3.org/2000/svg"
   width="48px"
   height="48px"
   viewBox="0 0 24 24"
   fill="none"
   aria-labelledby="coffeeIconTitle"
   stroke="#2329D6"
   stroke-width="1"
   stroke-linecap="square"
   stroke-linejoin="miter"
   color="#2329D6"
   version="1.1"
   id="svg11">
  <metadata
     id="metadata17">
    <rdf:RDF>
      <cc:Work
         rdf:about="">
        <dc:format>image/svg+xml</dc:format>
        <dc:type
           rdf:resource="http://purl.org/dc/dcmitype/StillImage" />
        <dc:title>Coffee</dc:title>
      </cc:Work>
    </rdf:RDF>
  </metadata>
  <defs
     id="defs15" />
  <title
     id="coffeeIconTitle">Coffee</title>
  <path
     d="M5 12H17V17C17 19.7614 14.7614 22 12 22H10C7.23858 22 5 19.7614 5 17V12Z"
     id="path3"
     style="stroke:#5e5e5e;stroke-opacity:1" />
  <path
     d="M17 13H19C20.1046 13 21 13.8954 21 15V15C21 16.1046 20.1046 17 19 17H17"
     id="path5"
     style="stroke:#5e5e5e;stroke-opacity:1" />
  <path
     d="M9 9C9 9 8 8.5 8 7C8 5.5 9 5 9 5"
     id="path7"
     style="stroke:#5e5e5e;stroke-opacity:1" />
  <path
     d="M12 3C12 3 13 3.5 13 5C13 6.5 12 7 12 7"
     id="path9"
     style="stroke:#5e5e5e;stroke-opacity:1" />
</svg>
