<?xml version="1.0" encoding="UTF-8" standalone="no"?>
<svg
   xmlns="http://www.w3.org/2000/svg"
   role="img"
   viewBox="0 0 24 24"
   fill="none"
   stroke="#5e5e5e"
   color="#2329D6"
   version="1.1"
   id="svg11">
   <g stroke="#5e5e5e">
      <path
         d="M5 12H17V17C17 19.7614 14.7614 22 12 22H10C7.23858 22 5 19.7614 5 17V12Z"
         id="path3" />
      <path
         d="M17 13H19C20.1046 13 21 13.8954 21 15V15C21 16.1046 20.1046 17 19 17H17"
         id="path5" />
      <path
         d="M9 9C9 9 8 8.5 8 7C8 5.5 9 5 9 5"
         id="path7" />
      <path
         d="M12 3C12 3 13 3.5 13 5C13 6.5 12 7 12 7"
         id="path9" />
   </g>
</svg>
