<svg version="1.1" id="Layer_1" xmlns="http://www.w3.org/2000/svg" xmlns:xlink="http://www.w3.org/1999/xlink" x="0px" y="0px"
	 width="100%" viewBox="0 0 1600 1131" enable-background="new 0 0 1600 1131" xml:space="preserve">
<path fill="none" opacity="1.000000" stroke="#000000" stroke-linecap="round" stroke-linejoin="round" stroke-width="25.000000"
	d="
M507.000000,617.500000 
	C509.609558,617.861877 508.935333,619.898438 508.987396,621.500427 
	C509.170013,627.120667 508.107727,632.517700 505.452362,637.474487 
	C504.123962,639.954285 504.257294,642.200195 505.512421,644.493225 
	C508.337585,649.654663 509.041656,655.187073 509.039215,661.000000 
	C508.987427,784.333313 509.008270,907.666687 508.989746,1031.000000 
	C508.987366,1046.815674 523.262329,1057.659424 535.500183,1057.644775 
	C712.166626,1057.433228 888.833496,1057.399536 1065.499634,1057.700439 
	C1078.890747,1057.723267 1093.809814,1046.739990 1093.530029,1029.499512 
	C1093.364990,1019.335510 1093.500000,1009.166687 1093.500000,999.000000 
	C1093.500000,885.333313 1093.506226,771.666687 1093.466675,658.000000 
	C1093.465576,654.933350 1093.752197,651.931458 1094.531860,649.008484 
	C1095.891235,643.912109 1098.148438,639.905701 1104.500000,639.906677 
	C1108.577026,639.907349 1112.087036,637.645447 1115.504639,635.507385 
	C1144.829956,617.161133 1174.212280,598.905579 1203.456665,580.431396 
	C1208.545654,577.216553 1213.631226,573.694031 1216.506348,568.003174 
	C1217.118164,566.792053 1218.163696,566.492737 1219.499512,566.470642 
	C1225.500610,566.371338 1231.500000,566.166626 1237.500000,566.000000 
"/>
<path fill="none" opacity="1.000000" stroke="#000000" stroke-linecap="round" stroke-linejoin="round" stroke-width="25.000000"
	d="
M1098.000000,641.000000 
	C1094.490356,634.607788 1093.381592,627.798523 1093.417480,620.499573 
	C1093.597656,583.833801 1093.563354,547.166504 1093.440796,510.500183 
	C1093.419067,504.014099 1094.634155,498.033539 1097.994507,492.500000 
	C1094.634155,486.966461 1093.439819,480.984955 1093.443848,474.499969 
	C1093.519897,351.333344 1093.503662,228.166672 1093.495972,105.000000 
	C1093.494751,86.157021 1080.729614,75.488701 1064.000000,75.490211 
	C888.666687,75.506065 713.333313,75.528046 538.000000,75.454903 
	C521.193665,75.447891 509.210419,87.913071 509.000000,102.000000 
"/>
<path fill="none" opacity="1.000000" stroke="#000000" stroke-linecap="round" stroke-linejoin="round" stroke-width="25.000000"
	d="
M498.500000,101.750000 
	C501.832855,101.750000 505.165680,101.750000 509.000000,101.750000 
	C509.000000,103.821854 509.000000,105.660927 509.000000,107.500000 
	C509.000000,228.166672 509.015106,348.833344 508.962280,469.499969 
	C508.959137,476.698090 508.865387,483.973877 505.016998,490.510010 
	C504.209442,491.881470 504.580414,493.084900 505.430634,494.540497 
	C508.382874,499.594910 509.072327,505.167877 509.053131,511.000183 
	C508.943695,544.333130 509.009338,577.666687 508.978577,611.000000 
	C508.976562,613.166809 508.666656,615.333313 508.500000,617.500000 
"/>
<path fill="none" opacity="1.000000" stroke="#000000" stroke-linecap="round" stroke-linejoin="round" stroke-width="25.000000"
	d="
M684.500000,456.000000 
	C680.032715,462.478119 678.378235,469.598694 678.415283,477.500397 
	C678.600525,516.999512 678.680847,556.501587 678.340149,595.998596 
	C678.275757,603.473633 680.534424,608.249878 686.938110,612.102844 
	C701.633484,620.944824 715.975342,630.372620 730.506470,639.489685 
	C747.312012,650.033936 764.164001,660.504333 781.007080,670.988586 
	C781.952148,671.576904 783.000000,672.000000 784.000000,672.500000 
"/>
<path fill="none" opacity="1.000000" stroke="#000000" stroke-linecap="round" stroke-linejoin="round" stroke-width="25.000000"
	d="
M818.500000,672.500000 
	C841.000000,658.500000 863.520020,644.532043 885.990662,630.485107 
	C895.712952,624.407410 905.171570,617.890320 915.058777,612.100403 
	C921.307129,608.441406 923.709717,603.844421 923.652039,596.498779 
	C923.334045,556.001282 923.508484,515.500000 923.472534,475.000031 
	C923.470886,473.171021 924.000977,471.257477 923.000000,469.500000 
"/>
<path fill="none" opacity="1.000000" stroke="#000000" stroke-linecap="round" stroke-linejoin="round" stroke-width="25.000000"
	d="
M907.000000,439.999969 
	C896.333374,433.166656 885.705872,426.271210 874.991760,419.513062 
	C853.519531,405.969025 831.896545,392.660461 810.561829,378.904114 
	C803.997070,374.671204 798.804138,374.369263 791.890076,378.829620 
	C761.310791,398.556763 730.385010,417.749969 699.457397,436.931366 
	C693.101929,440.873047 688.322327,445.917999 684.995605,452.497772 
	C684.482117,453.513489 684.416870,454.500000 685.000000,455.500000 
"/>
<path fill="none" opacity="1.000000" stroke="#000000" stroke-linecap="round" stroke-linejoin="round" stroke-width="25.000000"
	d="
M1016.000000,683.500000 
	C1013.053284,690.719666 1009.006897,697.384949 1004.869873,703.917603 
	C1002.119995,708.259888 996.740784,709.787231 992.482727,712.472656 
	C973.355652,724.535339 954.155334,736.481934 935.002380,748.503784 
	C894.661255,773.824768 854.333801,799.167419 813.999817,824.499695 
	C798.234314,834.401367 802.105713,832.939148 788.095825,824.343750 
	C750.813782,801.470215 714.036255,777.775574 676.987244,754.520325 
	C652.387939,739.079712 627.734802,723.721863 602.955750,708.572388 
	C596.108276,704.385864 594.477112,696.967163 590.517212,690.988586 
	C589.240723,689.061340 588.166687,687.000000 587.000000,685.000000 
"/>
<path fill="none" opacity="1.000000" stroke="#000000" stroke-linecap="round" stroke-linejoin="round" stroke-width="25.000000"
	d="
M1015.499939,448.500031 
	C1014.333313,446.166687 1013.012695,443.896423 1012.026367,441.489197 
	C1007.489746,430.417542 998.324036,424.415009 988.579712,418.371521 
	C936.077942,385.809723 883.840454,352.821991 831.492554,320.011902 
	C823.379211,314.926758 815.076111,310.140137 807.037109,304.942627 
	C802.826965,302.220642 799.186279,302.244171 794.965149,304.945557 
	C782.228394,313.096497 769.324158,320.985352 756.501770,329.002808 
	C721.330017,350.994690 686.170959,373.006866 650.998108,394.997009 
	C634.175659,405.514404 617.267456,415.896729 600.543030,426.567505 
	C595.955200,429.494751 595.027710,435.291901 592.009766,439.506989 
	C589.776306,442.626373 589.559326,447.128296 585.500000,449.000000 
"/>
<path fill="none" opacity="1.000000" stroke="#000000" stroke-linecap="round" stroke-linejoin="round" stroke-width="25.000000"
	d="
M884.500000,123.500000 
	C832.666687,123.500000 780.833313,123.500000 729.000000,123.500000 
"/>
<path fill="none" opacity="1.000000" stroke="#000000" stroke-linecap="round" stroke-linejoin="round" stroke-width="25.000000"
	d="
M801.000000,1015.000000 
	C820.246582,1013.203857 831.158691,1004.153381 836.117981,987.535217 
	C841.569153,969.268799 828.618652,946.589111 806.502808,942.982971 
	C787.695312,939.916382 771.150085,954.011108 766.750305,967.418091 
	C761.142639,984.505798 770.848511,1004.976440 784.417725,1010.695251 
	C789.712708,1012.926819 794.815796,1014.747620 800.500000,1015.000000 
"/>
<path fill="none" opacity="1.000000" stroke="#000000" stroke-linecap="round" stroke-linejoin="round" stroke-width="25.000000"
	d="
M685.500000,455.500000 
	C707.949524,466.929626 728.462158,481.562622 749.962708,494.561676 
	C765.985229,504.248718 781.583984,514.635559 797.568542,524.387634 
	C800.834473,526.380188 801.555115,528.582886 801.549805,532.000061 
	C801.476135,579.333252 801.500000,626.666687 801.500000,674.000000 
"/>
<path fill="none" opacity="1.000000" stroke="#000000" stroke-linecap="round" stroke-linejoin="round" stroke-width="25.000000"
	d="
M504.000000,492.000000 
	C491.454468,492.704407 482.460724,500.960938 472.538879,507.063232 
	C447.920593,522.204224 423.478333,537.632141 399.016144,553.025696 
	C393.327209,556.605591 387.390381,560.057068 385.000000,567.000000 
"/>
<path fill="none" opacity="1.000000" stroke="#000000" stroke-linecap="round" stroke-linejoin="round" stroke-width="25.000000"
	d="
M1098.500000,492.500000 
	C1104.726929,492.601471 1110.262329,494.648529 1115.520996,497.966644 
	C1145.477661,516.868774 1175.487549,535.686584 1205.512329,554.480225 
	C1210.464844,557.580261 1214.416992,561.583069 1217.500000,566.500000 
"/>
<path fill="none" opacity="1.000000" stroke="#000000" stroke-linecap="round" stroke-linejoin="round" stroke-width="25.000000"
	d="
M374.000000,567.000000 
	C374.833344,567.000000 375.677765,567.088562 376.498199,566.985596 
	C381.651550,566.338867 385.092682,567.433655 388.820557,572.252014 
	C394.513794,579.610535 403.691956,583.408020 411.553406,588.416199 
	C436.241608,604.143921 461.201172,619.445190 485.973602,635.041931 
	C491.552917,638.554626 497.328186,640.865295 504.000000,640.500000 
"/>
<path fill="none" opacity="1.000000" stroke="#000000" stroke-linecap="round" stroke-linejoin="round" stroke-width="25.000000"
	d="
M916.500000,455.500000 
	C898.441223,464.802490 881.753723,476.371094 864.518982,487.030670 
	C843.439270,500.068420 822.500000,513.333313 801.500000,526.499939 
"/>
<path fill="none" opacity="1.000000" stroke="#000000" stroke-linecap="round" stroke-linejoin="round" stroke-width="3.000000"
	d="
M1044.000000,164.500000 
	C1043.460815,169.151962 1045.155273,173.963470 1043.000000,178.500000 
"/>
<path fill="none" opacity="1.000000" stroke="#000000" stroke-linecap="round" stroke-linejoin="round" stroke-width="3.000000"
	d="
M596.500000,706.000000 
	C592.878296,707.156006 589.159729,706.180664 585.500000,706.500000 
"/>
<path fill="none" opacity="1.000000" stroke="#000000" stroke-linecap="round" stroke-linejoin="round" stroke-width="3.000000"
	d="
M591.000000,424.000000 
	C589.344055,422.691162 587.385925,423.044220 585.500000,423.000000 
"/>
<path fill="none" opacity="1.000000" stroke="#000000" stroke-linecap="round" stroke-linejoin="round" stroke-width="1.000000"
	d="
M569.500000,176.500000 
	C558.845398,178.876785 557.501038,180.548569 557.500977,191.500000 
	C557.499634,420.833344 557.470276,650.166687 557.581726,879.499939 
	C557.587769,891.845215 558.987366,893.408630 571.500061,893.418823 
	C724.499939,893.543579 877.500061,893.549500 1030.499878,893.408447 
	C1043.076294,893.396851 1044.403076,892.075928 1044.409790,879.499939 
	C1044.533325,650.000000 1044.490112,420.500000 1044.528564,191.000000 
	C1044.530518,179.197235 1041.728394,176.689621 1029.499634,176.522675 
	C1028.835449,176.513611 1028.166626,176.833328 1027.500000,177.000000 
"/>
<path fill="none" opacity="1.000000" stroke="#000000" stroke-linecap="round" stroke-linejoin="round" stroke-width="1.000000"
	d="
M576.000000,176.750015 
	C574.000000,176.666672 572.000000,176.583344 570.000000,176.500015 
"/>
</svg>