<?xml version="1.0" encoding="UTF-8" standalone="no"?>
<svg
   xmlns="http://www.w3.org/2000/svg"
   version="1.1"
   id="svg824"
   xml:space="preserve"
   viewBox="0 0 544.85866 751.59158">
   <defs
     id="defs828"><clipPath
       clipPathUnits="userSpaceOnUse"
       id="clipPath838"><path
         d="M 0,800 H 800 V 0 H 0 Z"
         id="path836" /></clipPath></defs><g
     id="g861"
     transform="matrix(1.3333333,0,0,-1.3333333,-260.90399,909.12878)"><g
       id="g840"
       transform="translate(515.7041,277.1699)"
       style="fill:#ff7f2a"><path
         d="m 0,0 c -6.526,-3.776 -13.826,-5.909 -22.164,-6.518 v -120.745 l -87.417,29.938 -87.418,-29.938 v 120.86 c -2.357,-0.193 -4.763,-0.317 -7.199,-0.317 -5.595,0 -10.725,0.646 -15.491,1.913 v -154.21 l 110.108,37.707 110.107,-37.707 V 0.331 C 0.347,0.224 0.182,0.105 0,0"
         style="fill:#ff7f2a;fill-opacity:1;fill-rule:nonzero;stroke:none"
         id="path842" /></g><g
       id="g844"
       transform="translate(468.6836,272.3154)"
       style="fill:#ff2a2a"><path
         d="m 0,0 c -4.629,0.674 -9.001,1.312 -12.193,1.312 -1.042,0 -1.592,-0.072 -1.789,-0.104 -2.175,-0.847 -7.307,-4.924 -10.723,-7.636 -10.465,-8.312 -24.799,-19.697 -43.979,-19.697 -19.179,0 -33.512,11.384 -43.978,19.696 -3.421,2.716 -8.564,6.801 -10.733,7.64 -0.166,0.026 -0.715,0.101 -1.781,0.101 -2.605,0 -6.001,-0.427 -9.676,-0.95 v -101.6 l 72.291,24.756 72.29,-24.756 V -1.281 C 6.329,-0.922 3.06,-0.447 0,0"
         style="fill:#ff2a2a;fill-opacity:1;fill-rule:nonzero;stroke:none"
         id="path846" /></g><ellipse
       style="fill:#ffff00;stroke:none;stroke-width:3.01021;stroke-linejoin:bevel"
       id="path1084"
       cx="397.42175"
       cy="-477.69785"
       transform="scale(1,-1)"
       rx="142.43443"
       ry="145.03598" /><g
       id="g848"
       transform="translate(400,344.7646)"
       style="fill:#ffdd55"><path
         d="m 0,0 c -73.322,0 -132.76,59.439 -132.76,132.761 0,73.322 59.438,132.76 132.76,132.76 73.32,0 132.76,-59.438 132.76,-132.76 C 132.76,59.439 73.32,0 0,0 m 177.911,85.08 c 4.287,16.039 26.411,30.291 26.411,47.681 0,17.39 -22.124,31.641 -26.411,47.679 -4.434,16.595 7.468,39.973 -0.938,54.502 -8.526,14.739 -34.803,16.065 -46.765,28.027 -11.962,11.961 -13.289,38.239 -28.026,46.765 -14.532,8.407 -37.906,-3.496 -54.503,0.939 C 31.643,314.96 17.39,337.082 0,337.082 c -17.391,0 -31.642,-22.122 -47.681,-26.409 -16.594,-4.435 -39.971,7.468 -54.501,-0.939 -14.739,-8.526 -16.065,-34.804 -28.027,-46.765 -11.961,-11.961 -38.238,-13.288 -46.765,-28.026 -8.406,-14.53 3.496,-37.908 -0.939,-54.504 -4.287,-16.037 -26.409,-30.288 -26.409,-47.678 0,-17.39 22.122,-31.642 26.409,-47.681 4.435,-16.595 -7.468,-39.972 0.938,-54.502 8.528,-14.737 34.804,-16.062 46.765,-28.025 11.962,-11.961 13.289,-38.24 28.026,-46.766 14.53,-8.406 37.908,3.497 54.503,-0.938 16.038,-4.287 30.29,-26.412 47.681,-26.412 17.39,0 31.643,22.125 47.679,26.412 16.597,4.435 39.971,-7.468 54.501,0.938 14.739,8.526 16.066,34.803 28.028,46.764 11.96,11.963 38.239,13.29 46.765,28.027 8.406,14.53 -3.496,37.907 0.938,54.502"
         style="fill:#ffdd55;fill-opacity:1;fill-rule:nonzero;stroke:none"
         id="path850" /></g></g></svg>
