<?xml version="1.0" encoding="UTF-8" standalone="no"?>
<svg
   xmlns="http://www.w3.org/2000/svg"
   width="352.53595"
   height="352.53595"
   viewBox="0 0 93.275135 93.275139"
   version="1.1"
   id="svg8">
  <g
     id="layer1"
     transform="translate(-64.865402,-89.055877)">
    <rect
       style="fill:#ffffff;stroke:#4d4d4d;stroke-width:0.293"
       id="rect833"
       width="92.98214"
       height="92.98214"
       x="65.011902"
       y="89.202377"
       ry="6.6817384" />
    <rect
       style="fill:#ffe680;stroke:#4d4d4d;stroke-width:0.473;stroke-miterlimit:4;stroke-dasharray:none"
       id="rect835"
       width="70.17804"
       height="66.904327"
       x="76.413948"
       y="97.196747"
       ry="3.8330584" />
    <circle
       style="fill:#ffb380;stroke:none;stroke-width:2.3575;stroke-miterlimit:4;stroke-dasharray:none"
       id="path864-9"
       cx="132.85864"
       cy="137.56441"
       r="7.7485118" />
    <circle
       style="fill:#ffb380;stroke:none;stroke-width:1.725;stroke-miterlimit:4;stroke-dasharray:none"
       id="path864"
       cx="91.574135"
       cy="150.74001"
       r="5.6696429" />
    <circle
       style="fill:#ffb380;stroke:none;stroke-width:2.7025;stroke-miterlimit:4;stroke-dasharray:none"
       id="path864-9-3"
       cx="95.608986"
       cy="113.60871"
       r="8.8824406" />
    <g
       id="g862"
       transform="matrix(0.76988322,0.48864463,-0.48864463,0.76988322,160.98559,9.2181904)">
      <rect
         style="fill:#f2f2f2;stroke:none;stroke-width:1.725;stroke-miterlimit:4;stroke-dasharray:none"
         id="rect853"
         width="7.8844509"
         height="46.9058"
         x="23.118813"
         y="130.69479"
         ry="2.0045266" />
      <circle
         style="fill:#ffd5d5;stroke:none;stroke-width:0.293"
         id="path847"
         cx="27.200047"
         cy="124.61441"
         r="17.439337" />
      <path
         style="fill:none;fill-rule:evenodd;stroke:#ff8080;stroke-width:1.725;stroke-miterlimit:4;stroke-dasharray:none"
         id="path849"
         d="m 25.881035,125.08838 c 0.397307,0.68815 -0.731602,0.87507 -1.143759,0.66035 -1.11692,-0.58189 -0.900244,-2.15417 -0.176941,-2.94787 1.293819,-1.41974 3.558573,-1.01983 4.751977,0.30647 1.751368,1.9464 1.148482,4.98402 -0.789877,6.55608 -2.583528,2.09532 -6.417197,1.28133 -8.360195,-1.27328 -2.445065,-3.21471 -1.416396,-7.85412 1.756695,-10.1643 3.843039,-2.79794 9.293174,-1.55278 11.968413,2.2401 3.152676,4.46978 1.68998,10.73355 -2.723514,13.77252 -5.095553,3.50861 -12.174813,1.82773 -15.57663,-3.20692 -3.865361,-5.7207 -1.965867,-13.6167 3.690331,-17.38074 6.3454,-4.22269 15.059033,-2.10428 19.184849,4.17374 4.580437,6.96979 2.242899,16.50171 -4.65715,20.98896" />
    </g>
    <rect
       style="fill:#4d4d4d;stroke:none;stroke-width:1.725;stroke-miterlimit:4;stroke-dasharray:none"
       id="rect930"
       width="70.02462"
       height="0.66817379"
       x="77.775429"
       y="176.93243"
       ry="0.33408689" />
    <path
       style="fill:#ffaaaa;stroke:#000000;stroke-width:0.10367px;stroke-linecap:butt;stroke-linejoin:miter;stroke-opacity:1"
       d="m 82.604999,170.45381 c -6.191051,-6.35274 -6.211328,3.37276 0.1481,5.48307 6.346387,-2.57649 4.715098,-12.04421 -0.1481,-5.48307 z"
       id="path932" />
    <path
       id="rect934"
       style="fill:#f9f9f9;stroke:#333333;stroke-width:0.258159;stroke-miterlimit:4;stroke-dasharray:none"
       d="m 90.665852,168.48249 h 5.926199 c 0.07645,0 0.137996,0.0615 0.137996,0.138 v 2.20127 l 2.61119,3.89523 -2.61119,-1.45984 v 1.54555 c 0,0.0764 -0.06155,0.138 -0.137996,0.138 h -5.926199 c -0.07645,0 -0.137996,-0.0616 -0.137996,-0.138 v -6.18221 c 0,-0.0765 0.06155,-0.138 0.137996,-0.138 z" />
  </g>
</svg>
