<?xml version="1.0" encoding="UTF-8" standalone="no"?>
<svg
   xmlns="http://www.w3.org/2000/svg"
   viewBox="0 0 61.490921 68.258087"
   version="1.1"
   id="svg8">
  <g
     id="layer1"
     transform="translate(-14.274976,-28.085775)">
    <path
       id="rect837"
       style="fill:none;stroke:#4d4d4d;stroke-width:3.001;stroke-miterlimit:4;stroke-dasharray:none"
       d="m 21.999334,45.457169 h 46.455333 c 1.335904,0 2.535649,0.895779 2.41138,1.997712 l -5.118931,45.39077 c -0.124273,1.101931 -1.075475,1.997711 -2.411379,1.997711 H 27.118264 c -1.335905,0 -2.28711,-0.89578 -2.411379,-1.997711 l -5.118931,-45.39077 c -0.124272,-1.101931 1.075475,-1.997712 2.41138,-1.997712 z" />
    <path
       style="fill:none;stroke:#4d4d4d;stroke-width:3.001;stroke-linecap:butt;stroke-linejoin:miter;stroke-miterlimit:4;stroke-dasharray:none;stroke-opacity:1"
       d="M 45.173371,51.200357 V 86.558022"
       id="path842" />
    <path
       style="fill:none;stroke:#4d4d4d;stroke-width:3.001;stroke-linecap:butt;stroke-linejoin:miter;stroke-miterlimit:4;stroke-dasharray:none;stroke-opacity:1"
       d="M 33.244159,51.200357 V 86.558022"
       id="path842-8" />
    <path
       style="fill:none;stroke:#4d4d4d;stroke-width:3.001;stroke-linecap:butt;stroke-linejoin:miter;stroke-miterlimit:4;stroke-dasharray:none;stroke-opacity:1"
       d="M 57.10259,51.200357 V 86.558022"
       id="path842-8-0" />
    <path
       id="rect837-6"
       style="fill:none;stroke:#4d4d4d;stroke-width:3.001;stroke-miterlimit:4;stroke-dasharray:none"
       d="m 18.599436,45.582687 h 52.841999 c 1.519564,0 3.286542,-0.987464 2.742896,-2.045844 L 72.243437,39.758272 C 71.699793,38.699893 71.020108,37.712428 69.500544,37.712428 H 20.540327 c -1.519563,0 -2.199249,0.987465 -2.742893,2.045844 l -1.940893,3.778571 c -0.543646,1.058379 1.223331,2.045844 2.742895,2.045844 z" />
    <path
       id="rect837-6-1"
       style="fill:none;stroke:#4d4d4d;stroke-width:3.001;stroke-miterlimit:4;stroke-dasharray:none"
       d="m 34.124364,37.41456 h 21.780562 c 0.626339,0 1.354655,-0.982198 1.130573,-2.034933 L 56.235498,31.621208 C 56.011417,30.568473 55.731262,29.586275 55.104923,29.586275 H 34.924367 c -0.626337,0 -0.906492,0.982198 -1.130573,2.034933 l -0.800001,3.758419 c -0.224082,1.052733 0.504234,2.034933 1.130571,2.034933 z" />
  </g>
</svg>
