<?xml version="1.0" encoding="UTF-8" standalone="no"?>
<svg
   xmlns:dc="http://purl.org/dc/elements/1.1/"
   xmlns:cc="http://creativecommons.org/ns#"
   xmlns:rdf="http://www.w3.org/1999/02/22-rdf-syntax-ns#"
   xmlns:svg="http://www.w3.org/2000/svg"
   xmlns="http://www.w3.org/2000/svg"
   xmlns:xlink="http://www.w3.org/1999/xlink"
   viewBox="0 0 74.633888 71.485832"
   version="1.1"
   id="svg5">
  <metadata
     id="metadata28">
    <rdf:RDF>
      <cc:Work
         rdf:about="">
        <dc:format>image/svg+xml</dc:format>
        <dc:type
           rdf:resource="http://purl.org/dc/dcmitype/StillImage" />
        <dc:title></dc:title>
      </cc:Work>
    </rdf:RDF>
  </metadata>
  <defs
     id="defs2">
    <linearGradient
       id="linearGradient3567">
      <stop
         style="stop-color:#ffaaaa;stop-opacity:1;"
         offset="0"
         id="stop3563" />
      <stop
         style="stop-color:#ffaaaa;stop-opacity:0;"
         offset="1"
         id="stop3565" />
    </linearGradient>
    <linearGradient
       id="linearGradient3534">
      <stop
         style="stop-color:#000000;stop-opacity:1;"
         offset="0"
         id="stop3532" />
    </linearGradient>
    <radialGradient
       xlink:href="#linearGradient3567"
       id="radialGradient3571"
       cx="65.656158"
       cy="122.27451"
       fx="65.656158"
       fy="122.27451"
       r="2.641819"
       gradientUnits="userSpaceOnUse"
       gradientTransform="matrix(1.3157895,0,0,1.3368421,-20.455439,-41.242823)" />
    <radialGradient
       xlink:href="#linearGradient3567"
       id="radialGradient3571-0"
       cx="65.656158"
       cy="122.27451"
       fx="65.656158"
       fy="122.27451"
       r="2.641819"
       gradientUnits="userSpaceOnUse"
       gradientTransform="matrix(1.3157895,0,0,1.3368421,0.62269423,-41.688557)" />
  </defs>
  <g
     id="layer1"
     transform="translate(-52.754977,-87.402171)">
    <g
       id="g993"
       transform="matrix(0.79109664,0,0,0.81933529,10.817188,27.101398)">
      <path
         style="fill:#f9f9f9;stroke:#000000;stroke-width:0.264583px;stroke-linecap:butt;stroke-linejoin:miter;stroke-opacity:1"
         d="m 93.514756,153.32252 c 17.410144,-3.21073 30.944324,-23.62123 33.778464,-37.81147 -0.97126,0.93533 -12.25784,0.54745 -14.47342,4.267 -2.2019,3.6966 -11.66373,5.16274 -14.761313,9.66224 -4.475325,4.76074 -8.07305,18.04094 -4.543731,23.88223 z"
         id="path10257" />
      <path
         style="fill:#ff5555;stroke:#000000;stroke-width:0.264583px;stroke-linecap:butt;stroke-linejoin:miter;stroke-opacity:1"
         d="m 127.29321,115.51102 c -10.77355,-0.73034 -23.04395,5.75021 -29.234723,13.92927 l 7.824523,-3.53427 -0.31501,3.90468 3.09451,-2.9507 0.71432,2.76667 3.7874,-2.40899 0.93344,3.05734 c 0.61077,-0.38853 2.39984,-3.27377 3.14514,-3.39112 l 1.04061,2.91721 2.04532,-3.14793 c 0.57197,-0.0648 1.55657,2.76705 1.82073,2.48369 2.11332,-2.2668 3.29981,-8.03903 5.14384,-13.62588 z"
         id="path10257-9" />
      <path
         style="fill:#f9f9f9;stroke:#000000;stroke-width:0.264583px;stroke-linecap:butt;stroke-linejoin:miter;stroke-opacity:1"
         d="m 58.398105,157.17433 c 11.062088,5.16053 28.987408,4.06973 38.709602,0.55617 1.214018,-16.90799 -0.141915,-25.87591 -12.347029,-34.70516 L 70.300196,122.5804 C 56.952284,132.60235 57.0815,141.41635 58.398105,157.17433 Z"
         id="path8779" />
      <path
         style="fill:#f9f9f9;stroke:#000000;stroke-width:0.281686px;stroke-linecap:butt;stroke-linejoin:miter;stroke-opacity:1"
         d="m 68.729525,96.365497 -10.476453,9.959693 c -3.267144,-5.80982 -4.450908,-11.619637 -5.069252,-17.429455 4.969226,3.269732 10.131716,5.830827 15.545705,7.469762 z"
         id="path1111" />
      <path
         style="fill:#ff5555;stroke:#000000;stroke-width:0.281686px;stroke-linecap:butt;stroke-linejoin:miter;stroke-opacity:1"
         d="M 71.449276,100.93571 60.972823,110.8954 55.903571,93.465952 Z"
         id="path1111-7" />
      <path
         style="fill:#f9f9f9;stroke:#000000;stroke-width:0.281686px;stroke-linecap:butt;stroke-linejoin:miter;stroke-opacity:1"
         d="m 81.06049,95.243935 10.476453,9.959695 c 2.482337,-5.578648 5.036386,-11.13638 5.069252,-17.429457 -4.92116,2.64202 -9.446309,5.515047 -15.545705,7.469762 z"
         id="path1111-9" />
      <path
         style="fill:#ff5555;stroke:#000000;stroke-width:0.281686px;stroke-linecap:butt;stroke-linejoin:miter;stroke-opacity:1"
         d="M 76.891778,99.995809 87.368231,109.9555 92.437483,92.526049 Z"
         id="path1111-7-1" />
      <path
         style="opacity:0.99;fill:#f9f9f9;stroke:#000000;stroke-width:0.24807px;stroke-linecap:butt;stroke-linejoin:miter;stroke-opacity:1"
         d="m 54.812767,107.18679 c 2.517041,-5.51085 13.930788,-13.574971 20.380826,-13.458921 12.353069,2.105619 16.281465,5.906528 20.617312,12.977451 -3.945551,16.59683 -6.726512,17.54809 -19.633867,30.72007 -14.349561,-14.81302 -17.468147,-14.73445 -21.364271,-30.2386 z"
         id="path898" />
      <ellipse
         style="fill:#1a1a1a;stroke:none;stroke-width:0.2;stroke-linejoin:bevel;stroke-miterlimit:4;stroke-dasharray:none;stroke-opacity:1"
         id="path1001"
         cx="76.216362"
         cy="137.4097"
         rx="4.452373"
         ry="2.476464" />
      <path
         style="fill:none;stroke:#000000;stroke-width:0.665;stroke-linecap:round;stroke-linejoin:miter;stroke-dasharray:none;stroke-opacity:1"
         d="m 62.766418,108.70074 c 3.205646,0.8597 6.477566,1.17264 9.28125,5.34852"
         id="path1189" />
      <path
         style="fill:none;stroke:#000000;stroke-width:0.665;stroke-linecap:round;stroke-linejoin:miter;stroke-dasharray:none;stroke-opacity:1"
         d="m 89.546787,108.45247 c -3.205646,0.8597 -6.477566,1.17264 -9.28125,5.34852"
         id="path1189-7" />
      <ellipse
         style="opacity:0.99;fill:url(#radialGradient3571);fill-opacity:1;stroke:none;stroke-width:1.67774;stroke-linejoin:bevel"
         id="path1342"
         cx="65.934242"
         cy="122.21889"
         rx="3.4760776"
         ry="3.5316949" />
      <ellipse
         style="opacity:0.99;fill:url(#radialGradient3571-0);fill-opacity:1;stroke:none;stroke-width:1.67774;stroke-linejoin:bevel"
         id="path1342-0"
         cx="87.012375"
         cy="121.77314"
         rx="3.4760776"
         ry="3.5316949" />
      <path
         style="fill:none;stroke:#000000;stroke-width:0.264583px;stroke-linecap:butt;stroke-linejoin:miter;stroke-opacity:1"
         d="m 68.501839,150.28734 c -0.582168,0.61651 3.009536,7.42519 3.522493,7.33193 1.358498,-2.30344 2.730278,-4.6012 3.373567,-7.21116"
         id="path9507" />
      <path
         style="fill:none;stroke:#000000;stroke-width:0.264583px;stroke-linecap:butt;stroke-linejoin:miter;stroke-opacity:1"
         d="m 80.388145,150.50804 c 0.527164,2.8455 1.619173,5.22029 3.404511,7.01731 1.507063,-1.85205 2.797592,-3.90259 3.058948,-6.89654"
         id="path9507-9" />
      <path
         style="fill:#ff5555;stroke:none;stroke-width:0.0693983px;stroke-linecap:butt;stroke-linejoin:miter;stroke-opacity:1"
         d="m 70.799938,155.67645 c 0.03571,0.2026 0.851555,1.57768 1.165403,1.76585 0.336186,-0.43565 0.700624,-1.09603 1.021002,-1.74562"
         id="path9507-1" />
      <path
         style="fill:#ff5555;stroke:none;stroke-width:0.0693983px;stroke-linecap:butt;stroke-linejoin:miter;stroke-opacity:1"
         d="m 82.550779,155.7595 c 0.03571,0.2026 0.928029,1.37607 1.241877,1.56424 0.336186,-0.43565 0.791002,-0.88052 1.11138,-1.53011"
         id="path9507-1-8" />
    </g>
    <g
       id="g974"
       transform="matrix(0.68999546,-0.5609265,0.53894761,0.71220858,40.71832,57.932713)">
      <rect
         style="fill:#cccccc;stroke:#000000;stroke-width:0.182733;stroke-linecap:round;stroke-linejoin:round"
         id="rect856"
         width="4.7948918"
         height="36.865658"
         x="12.003075"
         y="96.527878"
         ry="1.4820367" />
      <path
         id="path854"
         style="fill:#cccccc;stroke:#000000;stroke-width:0.755906;stroke-linecap:round;stroke-linejoin:round"
         d="M -145.93359,-110.50977 A 75.508478,75.508478 0 0 0 -221.44336,-35 75.508478,75.508478 0 0 0 -145.93359,40.507812 75.508478,75.508478 0 0 0 -70.425781,-35 75.508478,75.508478 0 0 0 -145.93359,-110.50977 Z m 0,10.24219 A 65.267793,65.267793 0 0 1 -80.666016,-35 65.267793,65.267793 0 0 1 -145.93359,30.267578 65.267793,65.267793 0 0 1 -211.20117,-35 a 65.267793,65.267793 0 0 1 65.26758,-65.26758 z"
         transform="matrix(0.26458333,0,0,0.26458333,53.01222,87.538039)" />
      <circle
         style="fill:#d5e5ff;fill-opacity:0.3;stroke:#000000;stroke-width:0.231711;stroke-linecap:round;stroke-linejoin:round"
         id="path925-2"
         cx="14.400366"
         cy="78.277367"
         r="17.26877" />
      <rect
         style="fill:#4d4d4d;stroke:#000000;stroke-width:0.206186;stroke-linecap:round;stroke-linejoin:round"
         id="rect856-3"
         width="6.1085682"
         height="36.842205"
         x="11.377824"
         y="102.38786"
         ry="1.4810939" />
    </g>
  </g>
</svg>
