<?xml version="1.0" encoding="UTF-8" standalone="no"?>
<svg
   xmlns:dc="http://purl.org/dc/elements/1.1/"
   xmlns:cc="http://creativecommons.org/ns#"
   xmlns:rdf="http://www.w3.org/1999/02/22-rdf-syntax-ns#"
   xmlns:svg="http://www.w3.org/2000/svg"
   xmlns="http://www.w3.org/2000/svg"
   xmlns:sodipodi="http://sodipodi.sourceforge.net/DTD/sodipodi-0.dtd"
   xmlns:inkscape="http://www.inkscape.org/namespaces/inkscape"
   viewBox="0 0 97.054213 96.972276"
   version="1.1"
   id="svg5"
   inkscape:version="1.0.2-2 (e86c870879, 2021-01-15)"
   sodipodi:docname="kitune_photo.svg">
  <metadata
     id="metadata28">
    <rdf:RDF>
      <cc:Work
         rdf:about="">
        <dc:format>image/svg+xml</dc:format>
        <dc:type
           rdf:resource="http://purl.org/dc/dcmitype/StillImage" />
        <dc:title></dc:title>
      </cc:Work>
    </rdf:RDF>
  </metadata>
  <sodipodi:namedview
     id="namedview7"
     pagecolor="#ffffff"
     bordercolor="#666666"
     borderopacity="1.0"
     inkscape:showpageshadow="2"
     inkscape:pageopacity="0.0"
     inkscape:pagecheckerboard="0"
     inkscape:deskcolor="#d1d1d1"
     inkscape:document-units="mm"
     showgrid="false"
     inkscape:zoom="0.5946522"
     inkscape:cx="79.643853"
     inkscape:cy="268.06385"
     inkscape:window-width="958"
     inkscape:window-height="1000"
     inkscape:window-x="953"
     inkscape:window-y="0"
     inkscape:window-maximized="0"
     inkscape:current-layer="layer1"
     inkscape:document-rotation="0"
     fit-margin-top="0"
     fit-margin-left="0"
     fit-margin-right="0"
     fit-margin-bottom="0" />
  <defs
     id="defs2">
    <linearGradient
       id="linearGradient3534"
       inkscape:swatch="solid">
      <stop
         style="stop-color:#000000;stop-opacity:1;"
         offset="0"
         id="stop3532" />
    </linearGradient>
  </defs>
  <g
     inkscape:label="Layer 1"
     inkscape:groupmode="layer"
     id="layer1"
     transform="translate(-45.138325,-84.359562)">
    <g
       id="g990"
       transform="matrix(0.85112239,-0.1333707,0.13160047,0.86257133,-10.24917,26.84226)">
      <g
         id="g1024"
         transform="translate(-19.889034,-33.49057)">
        <rect
           style="fill:#ffffff;stroke:#000000;stroke-width:0.235827;stroke-linecap:round;stroke-linejoin:round;stroke-opacity:1"
           id="rect875-4"
           width="69.502274"
           height="82.405472"
           x="71.290627"
           y="118.30582"
           ry="4.7675853" />
        <rect
           style="fill:#aaffcc;stroke:#000000;stroke-width:0.195905;stroke-linecap:round;stroke-linejoin:round;stroke-opacity:1"
           id="rect875-5-6"
           width="62.868095"
           height="62.868095"
           x="74.607712"
           y="123.51044"
           ry="3.6372464" />
      </g>
    </g>
    <g
       id="g1010"
       transform="rotate(7.1618583,53.625264,242.10507)">
      <rect
         style="fill:#ffffff;stroke:#000000;stroke-width:0.235827;stroke-linecap:round;stroke-linejoin:round;stroke-opacity:1"
         id="rect875"
         width="69.502274"
         height="82.405472"
         x="54.718678"
         y="90.019867"
         ry="4.7675853" />
      <rect
         style="fill:#aaeeff;stroke:#000000;stroke-width:0.195905;stroke-linecap:round;stroke-linejoin:round;stroke-opacity:1"
         id="rect875-5"
         width="62.868095"
         height="62.868095"
         x="58.035751"
         y="94.395279"
         ry="3.6372464" />
      <g
         id="g873"
         transform="matrix(0.71049339,0,0,0.71049339,23.266257,36.417871)">
        <path
           style="fill:#f9f9f9;stroke:#000000;stroke-width:0.264583px;stroke-linecap:butt;stroke-linejoin:miter;stroke-opacity:1"
           d="m 93.514756,153.32252 c 17.410144,-3.21073 30.944324,-23.62123 33.778464,-37.81147 -0.97126,0.93533 -12.25784,0.54745 -14.47342,4.267 -2.2019,3.6966 -11.66373,5.16274 -14.761313,9.66224 -4.475325,4.76074 -8.07305,18.04094 -4.543731,23.88223 z"
           id="path10257"
           sodipodi:nodetypes="ccscc" />
        <path
           style="fill:#ff5555;stroke:#000000;stroke-width:0.264583px;stroke-linecap:butt;stroke-linejoin:miter;stroke-opacity:1"
           d="m 127.29321,115.51102 c -10.77355,-0.73034 -23.04395,5.75021 -29.234723,13.92927 l 7.824523,-3.53427 -0.31501,3.90468 3.09451,-2.9507 0.71432,2.76667 3.7874,-2.40899 0.93344,3.05734 c 0.61077,-0.38853 2.39984,-3.27377 3.14514,-3.39112 l 1.04061,2.91721 2.04532,-3.14793 c 0.57197,-0.0648 1.55657,2.76705 1.82073,2.48369 2.11332,-2.2668 3.29981,-8.03903 5.14384,-13.62588 z"
           id="path10257-9"
           sodipodi:nodetypes="cccccccccccccc" />
        <path
           style="fill:#f9f9f9;stroke:#000000;stroke-width:0.264583px;stroke-linecap:butt;stroke-linejoin:miter;stroke-opacity:1"
           d="m 58.398105,157.17433 c 11.062088,5.16053 28.987408,4.06973 38.709602,0.55617 1.214018,-16.90799 -0.141915,-25.87591 -12.347029,-34.70516 L 70.300196,122.5804 C 56.952284,132.60235 57.0815,141.41635 58.398105,157.17433 Z"
           id="path8779"
           sodipodi:nodetypes="ccccc" />
        <path
           style="fill:#f9f9f9;stroke:#000000;stroke-width:0.281686px;stroke-linecap:butt;stroke-linejoin:miter;stroke-opacity:1"
           d="m 68.729525,96.365497 -10.476453,9.959693 c -3.267144,-5.80982 -4.450908,-11.619637 -5.069252,-17.429455 4.969226,3.269732 10.131716,5.830827 15.545705,7.469762 z"
           id="path1111"
           sodipodi:nodetypes="cccc" />
        <path
           style="fill:#ff5555;stroke:#000000;stroke-width:0.281686px;stroke-linecap:butt;stroke-linejoin:miter;stroke-opacity:1"
           d="M 71.449276,100.93571 60.972823,110.8954 55.903571,93.465952 Z"
           id="path1111-7" />
        <path
           style="fill:#f9f9f9;stroke:#000000;stroke-width:0.281686px;stroke-linecap:butt;stroke-linejoin:miter;stroke-opacity:1"
           d="m 81.06049,95.243935 10.476453,9.959695 c 2.482337,-5.578648 5.036386,-11.13638 5.069252,-17.429457 -4.92116,2.64202 -9.446309,5.515047 -15.545705,7.469762 z"
           id="path1111-9"
           sodipodi:nodetypes="cccc" />
        <path
           style="fill:#ff5555;stroke:#000000;stroke-width:0.281686px;stroke-linecap:butt;stroke-linejoin:miter;stroke-opacity:1"
           d="M 76.891778,99.995809 87.368231,109.9555 92.437483,92.526049 Z"
           id="path1111-7-1" />
        <path
           style="opacity:0.99;fill:#f9f9f9;stroke:#000000;stroke-width:0.24807px;stroke-linecap:butt;stroke-linejoin:miter;stroke-opacity:1"
           d="m 54.812767,107.18679 c 2.517041,-5.51085 13.930788,-13.574971 20.380826,-13.458921 12.353069,2.105619 16.281465,5.906528 20.617312,12.977451 -3.945551,16.59683 -6.726512,17.54809 -19.633867,30.72007 -14.349561,-14.81302 -17.468147,-14.73445 -21.364271,-30.2386 z"
           id="path898"
           sodipodi:nodetypes="ccccc" />
        <ellipse
           style="fill:#1a1a1a;stroke:none;stroke-width:0.2;stroke-linejoin:bevel;stroke-miterlimit:4;stroke-dasharray:none;stroke-opacity:1"
           id="path1001"
           cx="76.216362"
           cy="137.4097"
           rx="4.452373"
           ry="2.476464" />
        <path
           style="fill:none;stroke:#000000;stroke-width:0.665;stroke-linecap:round;stroke-linejoin:miter;stroke-dasharray:none;stroke-opacity:1"
           d="m 62.766418,108.70074 c 3.205646,0.8597 6.477566,1.17264 9.28125,5.34852"
           id="path1189"
           sodipodi:nodetypes="cc" />
        <path
           style="fill:none;stroke:#000000;stroke-width:0.665;stroke-linecap:round;stroke-linejoin:miter;stroke-dasharray:none;stroke-opacity:1"
           d="m 89.546787,108.45247 c -3.205646,0.8597 -6.477566,1.17264 -9.28125,5.34852"
           id="path1189-7"
           sodipodi:nodetypes="cc" />
        <path
           style="fill:none;stroke:#000000;stroke-width:0.264583px;stroke-linecap:butt;stroke-linejoin:miter;stroke-opacity:1"
           d="m 68.501839,150.28734 c -0.582168,0.61651 3.009536,7.42519 3.522493,7.33193 1.358498,-2.30344 2.730278,-4.6012 3.373567,-7.21116"
           id="path9507"
           sodipodi:nodetypes="ccc" />
        <path
           style="fill:none;stroke:#000000;stroke-width:0.264583px;stroke-linecap:butt;stroke-linejoin:miter;stroke-opacity:1"
           d="m 80.388145,150.50804 c 0.527164,2.8455 1.619173,5.22029 3.404511,7.01731 1.507063,-1.85205 2.797592,-3.90259 3.058948,-6.89654"
           id="path9507-9"
           sodipodi:nodetypes="ccc" />
        <path
           style="fill:#ff5555;stroke:none;stroke-width:0.0693983px;stroke-linecap:butt;stroke-linejoin:miter;stroke-opacity:1"
           d="m 70.799938,155.67645 c 0.03571,0.2026 0.851555,1.57768 1.165403,1.76585 0.336186,-0.43565 0.700624,-1.09603 1.021002,-1.74562"
           id="path9507-1"
           sodipodi:nodetypes="ccc" />
        <path
           style="fill:#ff5555;stroke:none;stroke-width:0.0693983px;stroke-linecap:butt;stroke-linejoin:miter;stroke-opacity:1"
           d="m 82.550779,155.7595 c 0.03571,0.2026 0.928029,1.37607 1.241877,1.56424 0.336186,-0.43565 0.791002,-0.88052 1.11138,-1.53011"
           id="path9507-1-8"
           sodipodi:nodetypes="ccc" />
      </g>
    </g>
  </g>
</svg>
