<?xml version="1.0" encoding="UTF-8" standalone="no"?>
<svg
   xmlns:dc="http://purl.org/dc/elements/1.1/"
   xmlns:cc="http://creativecommons.org/ns#"
   xmlns:rdf="http://www.w3.org/1999/02/22-rdf-syntax-ns#"
   xmlns:svg="http://www.w3.org/2000/svg"
   xmlns="http://www.w3.org/2000/svg"
   version="1.1"
   id="svg867"
   xml:space="preserve"
   viewBox="0 0 1066.6667 1066.6667"><metadata
     id="metadata873"><rdf:RDF><cc:Work
         rdf:about=""><dc:format>image/svg+xml</dc:format><dc:type
           rdf:resource="http://purl.org/dc/dcmitype/StillImage" /><dc:title></dc:title></cc:Work></rdf:RDF></metadata><defs
     id="defs871"><clipPath
       clipPathUnits="userSpaceOnUse"
       id="clipPath887"><path
         d="M 0,800 H 800 V 0 H 0 Z"
         id="path885" /></clipPath></defs><g
     id="g875"
     transform="matrix(1.3333333,0,0,-1.3333333,0,1066.6667)"><g
       id="g877"
       transform="translate(571.9561,450.0396)"
       style="fill:#87aade"><path
         d="M 0,0 15.281,3.337 8.656,33.673 -6.625,30.336 Z"
         style="fill:#87aade;fill-opacity:1;fill-rule:nonzero;stroke:none"
         id="path879" /></g><g
       id="g881"
       style="fill:#87aade"><g
         id="g883"
         clip-path="url(#clipPath887)"
         style="fill:#87aade"><g
           id="g889"
           transform="translate(683.5068,380.3643)"
           style="fill:#87aade"><path
             d="m 0,0 -35.352,161.873 c -1.322,6.056 -7.359,9.928 -13.416,8.605 L -454.997,81.762 h 117.172 l 213.454,46.616 2.883,-13.199 15.283,3.337 -2.883,13.2 52.242,11.409 L -27.354,8.08 -58.742,1.226 v -25.589 l 50.135,10.948 C -2.551,-12.093 1.322,-6.055 0,0"
             style="fill:#87aade;fill-opacity:1;fill-rule:nonzero;stroke:none"
             id="path891" /></g><path
           d="m 505.649,305.463 h 15.643 v 31.051 h -15.643 z"
           style="fill:#87aade;fill-opacity:1;fill-rule:nonzero;stroke:none"
           id="path893" /><path
           d="m 505.649,352.039 h 15.643 v 31.051 h -15.643 z"
           style="fill:#87aade;fill-opacity:1;fill-rule:nonzero;stroke:none"
           id="path895" /><g
           id="g897"
           transform="translate(574.7646,273.8984)"
           style="fill:#87aade"><path
             d="M 0,0 H -53.473 V 16.039 H -69.115 V 0 h -364.416 v 138.228 h 364.416 v -13.51 h 15.642 v 13.51 H 0 Z M 13.729,163.228 H -447.26 c -6.198,0 -11.271,-5.072 -11.271,-11.271 V -13.729 c 0,-6.199 5.073,-11.271 11.271,-11.271 H 13.729 C 19.928,-25 25,-19.928 25,-13.729 v 165.686 c 0,6.199 -5.072,11.271 -11.271,11.271"
             style="fill:#87aade;fill-opacity:1;fill-rule:nonzero;stroke:none"
             id="path899" /></g><g
           id="g901"
           transform="translate(171.501,304.3994)"
           style="fill:#87aade"><path
             d="m 0,0 6.155,16.414 c -0.194,0.125 -0.38,0.271 -0.551,0.44 l -2.632,2.634 c -1.233,1.233 -1.281,3.202 -0.107,4.376 1.174,1.175 3.143,1.126 4.376,-0.106 l 1.214,-1.213 3.277,8.739 -1.012,1.013 c -1.233,1.232 -1.281,3.201 -0.107,4.376 0.887,0.886 2.226,1.075 3.36,0.585 l 5.153,13.74 -9.4,8.068 C 2.822,65.969 -5.4,81.593 -0.878,86.115 3.644,90.639 19.268,82.414 26.171,75.512 l 8.067,-9.401 13.741,5.153 c -0.49,1.134 -0.301,2.473 0.585,3.359 1.174,1.175 3.144,1.127 4.376,-0.105 l 1.013,-1.014 8.74,3.278 -1.214,1.214 c -1.233,1.233 -1.281,3.201 -0.106,4.376 1.174,1.174 3.143,1.126 4.376,-0.106 l 2.633,-2.633 c 0.171,-0.172 0.316,-0.358 0.441,-0.551 l 16.413,6.155 c 1.959,0.735 4.288,-0.214 5.176,-2.108 l 0.281,-0.6 c 0.889,-1.894 0.21,-4.422 -1.507,-5.616 L 48.974,48.941 78.836,14.146 c 0.069,0.039 0.14,0.076 0.216,0.106 l 11.633,4.721 c 0.969,0.392 2.367,0.109 3.107,-0.63 l 1.146,-1.147 c 0.74,-0.739 0.619,-1.797 -0.27,-2.349 l -11.8,-7.344 3.277,-6.379 c 0.591,-1.149 0.658,-1.953 0.289,-2.321 -0.368,-0.368 -1.172,-0.302 -2.322,0.289 L 77.734,2.369 70.391,-9.432 c -0.553,-0.887 -1.611,-1.008 -2.35,-0.269 l -1.146,1.146 c -0.74,0.74 -1.023,2.138 -0.63,3.107 l 4.72,11.633 c 0.031,0.076 0.067,0.147 0.106,0.216 L 36.296,36.264 8.324,-3.948 C 7.13,-5.666 4.603,-6.344 2.708,-5.456 l -0.6,0.281 C 0.214,-4.287 -0.735,-1.958 0,0"
             style="fill:#87aade;fill-opacity:1;fill-rule:nonzero;stroke:none"
             id="path903" /></g><path
           d="M 454.579,361.519 H 306 v 20 h 148.579 z"
           style="fill:#87aade;fill-opacity:1;fill-rule:nonzero;stroke:none"
           id="path905" /><path
           d="M 454.579,304.507 H 306 v 20 h 148.579 z"
           style="fill:#87aade;fill-opacity:1;fill-rule:nonzero;stroke:none"
           id="path907" /></g></g></g></svg>
