<?xml version="1.0" encoding="UTF-8" standalone="no"?>
<svg
   xmlns:dc="http://purl.org/dc/elements/1.1/"
   xmlns:cc="http://creativecommons.org/ns#"
   xmlns:rdf="http://www.w3.org/1999/02/22-rdf-syntax-ns#"
   xmlns:svg="http://www.w3.org/2000/svg"
   xmlns="http://www.w3.org/2000/svg"
   version="1.1"
   id="svg833"
   xml:space="preserve"
   viewBox="0 0 1066.6667 1066.6667"><metadata
     id="metadata839"><rdf:RDF><cc:Work
         rdf:about=""><dc:format>image/svg+xml</dc:format><dc:type
           rdf:resource="http://purl.org/dc/dcmitype/StillImage" /><dc:title></dc:title></cc:Work></rdf:RDF></metadata><defs
     id="defs837"><clipPath
       clipPathUnits="userSpaceOnUse"
       id="clipPath849"><path
         d="M 0,800 H 800 V 0 H 0 Z"
         id="path847" /></clipPath></defs><g
     id="g841"
     transform="matrix(1.3333333,0,0,-1.3333333,0,1066.6667)"
     style="fill:#ff8080"><g
       id="g843"
       style="fill:#ff8080"><g
         id="g845"
         clip-path="url(#clipPath849)"
         style="fill:#ff8080"><g
           id="g851"
           transform="translate(641.9258,447.0117)"
           style="fill:#ff8080"><path
             d="m 0,0 c -0.558,-1.906 -2.438,-4.397 -5.478,-7.399 -7.832,-2.088 -31.499,-12.851 -113.435,-61.146 9.129,6.269 18.023,12.345 26.596,18.135 16.734,9.176 32.156,17.75 45.472,25.402 23.594,13.557 35.365,21.24 41.22,25.94 2.147,0.584 3.79,0.75 4.92,0.495 C -0.128,1.297 -0.008,1.089 0.038,1.01 0.187,0.753 0.077,0.267 0,0 m -2.884,-15.105 c -0.861,-2.735 -3.154,-5.818 -6.659,-9.193 -1.062,1.631 -2.715,2.711 -4.917,3.214 -0.189,0.043 -0.382,0.082 -0.58,0.116 5.075,3.882 8.811,7.052 11.563,9.669 0.221,0.035 0.412,0.055 0.575,0.062 0.47,-1.143 0.475,-2.415 0.018,-3.868 m -4.161,-18.94 c 0.269,-0.497 0.532,-1.3 0.111,-2.652 -0.854,-2.738 -3.652,-5.992 -8.048,-9.669 -0.044,0.014 -0.088,0.027 -0.133,0.038 -1.648,0.416 -1.992,0.506 -61.356,-36.089 -12.351,-6.233 -25.666,-12.711 -39.345,-19.268 26.567,18.519 51.429,35.764 70.88,48.218 0.042,0.027 0.082,0.052 0.124,0.079 7.469,4.225 14.235,8.3 20.15,12.198 13.418,7.476 16.787,7.501 17.617,7.145 M -25.08,-67.082 c -0.4,-1.31 -1.18,-2.72 -2.303,-4.222 -0.302,0.125 -0.633,0.234 -0.998,0.32 -0.575,0.134 -1.224,0.201 -1.948,0.201 -0.857,0 -1.817,-0.094 -2.877,-0.278 3.684,2.346 6.563,4.157 8.378,5.256 -0.028,-0.398 -0.112,-0.823 -0.252,-1.277 m -29.183,-25.305 c -1.285,-0.73 -2.635,-1.49 -4.052,-2.281 -17.688,-9.866 -41.562,-22.19 -66.878,-35.25 21.934,13.87 44.85,28.546 68.017,43.466 2.642,1.701 5.201,3.349 7.655,4.93 8.541,4.138 15.063,6.528 18.773,6.528 0.034,0 0.069,-0.001 0.102,-0.001 -5.102,-5.081 -13.291,-10.971 -23.617,-17.392 m -116.111,-69.623 c -47.387,-28.112 -94.577,-56.727 -107.034,-64.294 0.589,1.39 1.689,2.952 3.246,4.667 9.285,3.715 29.404,16.434 65.555,40.277 11.911,7.07 24.698,14.837 38.14,23.129 6.826,3.59 13.7,7.176 20.534,10.723 8.681,4.237 17.318,8.472 25.761,12.669 -12.883,-7.491 -28.139,-16.455 -46.202,-27.171 m -106.275,-56.163 c -0.006,-0.007 -0.012,-0.013 -0.018,-0.019 -0.041,-0.014 -0.08,-0.027 -0.12,-0.04 0.047,0.02 0.092,0.039 0.138,0.059 m 28.597,21.378 c -6.081,-3.823 -11.431,-7.403 -15.981,-10.727 -2.166,-1.099 -4.178,-2.096 -6.048,-2.999 5.185,3.9 12.782,8.557 22.029,13.726 m -32.771,-18.588 c -10.365,-4.28 -12.833,-3.751 -13.36,-3.467 -0.275,0.507 -0.552,1.34 -0.113,2.807 0.249,0.834 0.663,1.721 1.232,2.654 8.115,2.405 27.588,11.932 78.123,41.714 35.576,20.967 76.847,46.268 113.163,68.643 24.579,12.444 44.362,22.663 58.933,30.875 -2.752,-1.768 -5.907,-3.797 -9.529,-6.129 -27.387,-13.306 -73.365,-43.085 -128.191,-79.394 -57.519,-28.057 -93.796,-46.602 -100.258,-57.703 m 90.25,67.248 c -37.351,-25.221 -72.808,-47.705 -95.502,-57.439 16.305,14.637 54.057,35.833 95.502,57.439 m -104.502,-60.828 c -0.513,-0.16 -1.013,-0.308 -1.505,-0.446 -0.164,0.718 -0.103,1.506 0.18,2.411 5.101,16.355 71.861,48.943 135.549,79.188 -0.457,-0.315 -0.906,-0.625 -1.363,-0.94 -61.691,-31.323 -118.201,-61.534 -132.861,-80.213 m 147.682,82.933 c -9.544,-5.831 -19.143,-11.671 -28.632,-17.409 5.292,3.62 10.646,7.304 16.022,11.019 4.218,2.144 8.422,4.274 12.61,6.39 m -153.08,-79.698 c -0.51,-1.637 -0.599,-3.188 -0.267,-4.635 -2.383,-0.4 -4.401,-0.441 -6.01,-0.08 -1.377,0.306 -2.275,0.892 -2.825,1.845 -0.168,0.291 -0.163,0.745 0.015,1.351 0.549,1.864 2.232,4.22 4.907,6.997 13.913,7.414 40.614,25.349 87.403,57.226 4.005,2.728 8.09,5.511 12.234,8.333 13.096,7.159 26.62,14.617 40.161,22.177 0.556,0.26 1.117,0.522 1.672,0.782 28.779,13.442 56.994,26.621 81.715,39.002 -13.167,-9.01 -27.898,-19.255 -44.109,-30.56 -4.534,-3.162 -9.141,-6.374 -13.794,-9.614 -3.12,-1.48 -6.249,-2.962 -9.366,-4.44 -74.93,-35.507 -145.703,-69.045 -151.736,-88.384 m -14.162,5.666 c -0.279,0.815 -0.25,1.711 0.082,2.765 0.588,1.867 1.963,3.931 4.042,6.171 1.138,0.596 2.364,1.237 3.665,1.92 7.22,3.011 15.832,7.413 25.561,12.924 -11.818,-8.247 -20.369,-15.047 -25.745,-20.476 -3.594,-1.942 -6.205,-3.104 -7.605,-3.304 m 123.482,79.947 c -2.976,-1.4 -5.937,-2.794 -8.871,-4.181 8.942,6.069 18.099,12.341 27.393,18.732 1.616,0.974 3.239,1.951 4.858,2.924 9.21,5.543 17.904,10.751 26.124,15.651 -16.391,-10.769 -33.138,-22.032 -49.504,-33.126 m 95.29,52.137 c -16.833,-9.062 -35.042,-18.978 -53.461,-29.2 45.459,30.128 90.084,58.037 115.77,68.162 -16.551,-11.265 -38.145,-24.653 -62.309,-38.962 m 76.628,35.727 c -2.493,-1.816 -5.231,-3.691 -8.183,-5.614 -5.208,-2.914 -11.249,-6.578 -18.089,-10.93 -19.803,-11.266 -44.664,-23.648 -70.703,-36.106 8.526,4.932 16.618,9.672 24.272,14.214 27.607,14.874 53.014,28.246 72.703,38.436 m -11.408,8.746 c 6.418,3.349 11.419,5.823 15.306,7.633 -2.196,-1.717 -4.604,-3.526 -7.204,-5.418 -2.378,-0.447 -5.074,-1.184 -8.102,-2.215 m 9.88,-1.723 c 2.122,0.308 3.918,0.313 5.353,-0.015 0.107,-0.025 0.21,-0.05 0.308,-0.078 -4.127,-2.133 -12.399,-6.421 -23.631,-12.309 7.103,4.705 13.028,8.81 17.97,12.402 m -304.754,-164.123 c -1.18,0.266 -1.663,0.767 -1.914,1.159 0.075,0.575 1.174,3.796 15.181,13.632 9.561,6.714 23.272,15.271 41.917,26.157 34.554,20.174 79.943,44.759 123.838,68.535 5.724,3.1 11.396,6.173 17,9.211 -6.442,-4.428 -13.098,-9.015 -19.971,-13.759 -8.414,-5.807 -16.96,-11.705 -25.518,-17.587 -30.152,-18.174 -59.868,-36.34 -84.683,-51.603 -21.842,-11.432 -39.381,-21.851 -49.582,-30.647 -2.181,-1.355 -4.132,-2.569 -5.837,-3.63 -4.508,-1.463 -8.045,-2.008 -10.431,-1.468 m -5.071,11.905 c 3.887,3.884 11.353,9.728 24.846,18.516 2.151,1.271 4.384,2.589 6.697,3.956 -14.028,-9.901 -25,-17.761 -31.543,-22.472 m 45.295,37.852 c 6.267,3.426 12.858,7.038 19.69,10.795 -17.441,-10.626 -32.971,-20.124 -45.371,-27.709 7.536,4.797 16.099,10.453 25.681,16.914 m 35.888,14.001 c 2.541,1.507 5.113,3.032 7.712,4.574 30.914,17.302 65.918,36.084 100.041,54.394 74.041,39.728 120.631,64.98 133.977,76.661 1.57,-0.35 2.689,-0.984 3.402,-1.928 C -4.63,7.455 -5.576,6.396 -7.69,4.679 -22.65,0.168 -51.979,-18.097 -94.166,-46.559 c -17.028,-9.337 -35.429,-19.304 -54.36,-29.558 -72.738,-39.399 -128.751,-70.107 -158.745,-89.906 14.994,10.646 35.109,24.792 57.866,40.43 m -81.692,-27.344 c 30.384,18.868 86.954,53.825 144.118,88.246 3.391,2.042 6.726,4.046 9.991,6.006 -56.807,-37.625 -117.248,-76.488 -154.109,-94.252 m -22.404,-8.921 c -0.04,-0.01 -0.079,-0.02 -0.118,-0.031 0.045,0.368 0.128,0.756 0.25,1.167 0.48,1.618 1.451,3.415 2.872,5.373 14.015,6.255 33.131,16.655 56.287,30.25 -29.7,-18.31 -51.874,-32.13 -59.291,-36.759 m -10.302,5.748 c 4.116,7.235 18.055,17.432 37.918,29.335 2.168,1.099 4.388,2.227 6.652,3.379 -16.704,-11.577 -27.924,-21.011 -33.794,-28.403 -4.389,-1.962 -7.929,-3.358 -10.776,-4.311 m 6.345,-3.398 c -0.335,-1.13 -0.49,-2.206 -0.463,-3.224 -1.827,-0.226 -3.374,-0.204 -4.614,0.086 -1.36,0.317 -1.829,0.894 -2.064,1.301 -0.085,0.147 -0.172,0.32 -0.246,0.528 2.327,0.662 4.963,1.58 7.903,2.743 -0.206,-0.49 -0.378,-0.969 -0.516,-1.434 m -11.391,2.468 c -0.051,-0.167 -0.097,-0.332 -0.139,-0.497 -1.925,-0.372 -3.263,-0.387 -4.166,-0.169 -0.158,0.038 -0.535,0.145 -0.636,0.32 -0.736,1.276 -0.821,2.807 -0.259,4.68 0.212,0.704 0.505,1.441 0.88,2.208 4.01,1.985 9.902,4.913 17.327,8.628 -7.173,-5.817 -11.711,-10.925 -13.007,-15.17 m -7.226,19.51 c 2.499,2.843 8.023,7.843 20.194,16.323 13.878,9.67 33.659,22.061 60.474,37.884 5.445,3.213 11.05,6.49 16.788,9.819 4.363,2.167 8.79,4.37 13.255,6.599 -5.816,-4.146 -11.575,-8.229 -17.239,-12.214 -32.027,-18.393 -59.302,-35.712 -76.502,-50.016 -6.409,-3.559 -12.116,-6.407 -16.97,-8.395 m -6.106,-1.944 c -0.023,-0.084 -0.044,-0.167 -0.063,-0.249 -3.431,-0.988 -6.201,-1.311 -8.221,-0.88 -1.468,0.315 -2.013,1.001 -2.295,1.49 -0.056,0.096 -0.226,0.391 -0.005,1.153 0.55,1.891 2.538,4.393 5.953,7.498 7.602,4.069 19.199,10.672 37.096,21.317 1.806,1.075 3.645,2.171 5.521,3.292 5.4,2.666 11.016,5.431 16.765,8.26 -32.83,-20.295 -52.808,-34.915 -54.751,-41.881 m -18.41,17.38 c -1.899,-0.2 -3.587,-0.17 -5.042,0.109 8.667,10.931 39.576,29.373 78.797,50.352 -2.789,-1.94 -5.529,-3.846 -8.214,-5.715 -27.716,-19.288 -52.649,-36.639 -65.541,-44.746 m -8.824,2.015 c -0.296,0.316 -0.557,0.67 -0.783,1.06 -0.656,1.135 -0.739,2.432 -0.254,3.963 0.245,0.779 0.614,1.587 1.099,2.426 1.896,0.855 4.305,2.006 7.37,3.547 2.817,0.96 5.875,2.133 9.155,3.509 -7.761,-5.525 -13.443,-10.404 -16.587,-14.505 m 1.436,-6.305 c 0.027,0.163 0.068,0.343 0.127,0.538 10e-4,0.006 0.003,0.011 0.005,0.017 0.207,-0.063 0.419,-0.121 0.634,-0.175 -0.276,-0.142 -0.532,-0.269 -0.766,-0.38 m -7.179,19.353 c 0.052,0.209 0.111,0.423 0.178,0.64 0.103,0.332 0.224,0.676 0.366,1.032 3.384,1.744 7.811,4.01 12.926,6.627 -2.881,-2.322 -5.333,-4.544 -7.317,-6.662 -2.225,-0.668 -4.272,-1.21 -6.153,-1.637 m -2.717,4.79 c -6.814,-3.524 -6.815,-3.528 -7.114,-4.536 -0.154,-0.522 -0.102,-1.085 0.142,-1.57 -1.65,-0.008 -3.067,0.116 -4.275,0.368 -2.53,0.529 -4.237,1.611 -5.217,3.308 -0.681,1.179 -0.765,2.569 -0.259,4.253 0.039,0.129 0.08,0.257 0.125,0.388 4.454,-0.765 11.932,1.216 21.813,5.395 -2.315,-2.749 -4.054,-5.286 -5.215,-7.606 m -18.196,12.664 c 0.746,-0.412 1.588,-0.722 2.523,-0.928 0.023,-0.005 0.047,-0.01 0.07,-0.015 -0.991,-1.172 -1.849,-2.301 -2.579,-3.39 -0.486,1.282 -0.489,2.71 -0.014,4.333 m -2.893,13.294 c -5.634,-3.111 -9.786,-5.28 -12.137,-6.309 0.629,1.898 2.628,4.783 7.255,9.169 2.187,1.188 5.9,3.498 12.593,7.874 -3.679,-3.883 -6.297,-7.474 -7.711,-10.734 m -10.438,12.393 c -0.785,-0.305 -1.452,-0.536 -1.992,-0.685 0.022,0.161 0.061,0.345 0.12,0.553 0.149,0.52 0.385,1.078 0.706,1.673 0.683,0.236 1.405,0.502 2.158,0.799 -0.399,-0.797 -0.73,-1.577 -0.992,-2.34 m -4.022,4.932 c -2.263,-0.682 -3.314,-0.632 -3.799,-0.416 -0.183,0.358 -0.346,0.938 -0.036,1.953 0.254,0.83 0.714,1.726 1.367,2.68 3.139,1.433 7.15,3.395 12.314,6.07 -4.522,-3.894 -7.845,-7.337 -9.846,-10.287 m -5.102,7.663 c -4.343,-1.961 -6.631,-2.706 -7.785,-2.857 -0.346,0.985 -0.321,2.089 0.072,3.351 0.237,0.758 0.588,1.547 1.047,2.364 4.421,0.407 15.684,6.588 37.18,20.174 0.386,0.203 0.773,0.408 1.164,0.614 -15.478,-9.282 -26.582,-17.289 -31.678,-23.646 m 7.975,22.488 c -1.018,-0.736 -2,-1.463 -2.949,-2.183 -3.048,-1.602 -5.654,-2.911 -7.881,-3.975 3.157,1.801 6.808,3.876 10.83,6.158 m 61.576,30.915 c 0.005,0.002 0.011,0.006 0.016,0.008 -14.996,-9.853 -29.187,-19.087 -41.204,-26.677 -8.156,-4.311 -16.536,-8.722 -25.148,-13.241 1.269,1.052 2.634,2.128 4.09,3.229 14.716,7.683 35.663,20.166 62.246,36.681 m -29.277,-32.143 c -11.366,-6.386 -20.145,-11.144 -26.909,-14.665 12.203,9.126 32.591,20.781 57.19,33.703 -11.335,-6.822 -21.497,-13.193 -30.281,-19.038 m 61.975,48.602 c 17.097,8.407 34.956,16.944 52.616,25.33 -23.963,-13.368 -51.327,-28.33 -82.556,-45.073 9.05,5.946 19.011,12.519 29.94,19.743 m 82.73,54.265 c 1.815,1.073 3.619,2.14 5.415,3.205 39.585,23.462 64.775,39.208 80.754,49.919 20.413,11.641 35.998,19.44 46.664,23.355 -5.794,-8.792 -30.752,-29.25 -112.385,-76.675 -11.797,-5.643 -23.811,-11.337 -35.763,-17.001 -13.65,-6.468 -27.191,-12.885 -40.353,-19.19 18.31,12.077 37.15,24.44 55.668,36.387 m 138.238,77.928 c 0.034,0.117 0.065,0.233 0.093,0.348 3.93,1.093 6.877,1.411 8.83,0.951 1.154,-0.272 1.444,-0.774 1.539,-0.939 0.294,-0.511 0.632,-1.364 0.161,-2.872 -0.223,-0.718 -0.576,-1.472 -1.051,-2.26 -7.654,-3.437 -16.532,-8.031 -26.397,-13.559 10.05,8.048 15.602,14.111 16.825,18.331 m 20.22,-4.849 c 1.222,0.45 2.388,0.85 3.495,1.198 -0.04,-0.239 -0.101,-0.497 -0.186,-0.775 -0.95,-3.111 -4.118,-6.884 -9.108,-11.193 -3.203,-1.805 -6.691,-3.745 -10.427,-5.801 -9.228,-4.697 -19.555,-10.286 -30.99,-16.769 -12.527,-6.703 -26.069,-13.89 -39.818,-21.187 -11.148,-5.917 -22.135,-11.759 -32.925,-17.514 6.748,4.096 13.424,8.15 19.986,12.134 1.012,0.615 2.025,1.23 3.035,1.844 42.043,20.872 75.435,39.374 87.208,52.5 3.953,2.306 7.237,4.186 9.73,5.563 m 12.183,-8.101 c -10.439,-6.227 -24.894,-14.896 -41.477,-24.841 -12.116,-7.266 -26.447,-15.861 -42.207,-25.294 -11.986,-5.84 -24.316,-11.789 -36.575,-17.704 -2.735,-1.321 -5.482,-2.646 -8.235,-3.975 1.966,1.235 3.922,2.461 5.879,3.682 46.171,23.175 85.193,44.223 104.75,60.114 6.912,3.351 12.822,5.983 17.865,8.018 m -4.794,7.278 c 0.337,1.104 0.48,2.165 0.43,3.175 2.655,0.557 4.819,0.672 6.435,0.299 0.46,-0.106 0.809,-0.245 1.078,-0.397 -1.472,-1.302 -4.72,-3.435 -9.394,-6.238 0.657,1.099 1.143,2.153 1.451,3.161 m 20.136,-3.137 c -5.05,-4.86 -16.705,-12.01 -32.428,-20.558 -5.23,-2.744 -10.818,-5.683 -16.708,-8.79 22.142,13.278 40.467,24.259 49.136,29.348 M -260.479,45.822 c -6.527,-3.614 -12.902,-7.164 -19.121,-10.645 5.605,3.639 11.238,7.28 16.872,10.902 7.613,3.708 15.197,7.384 22.697,11.01 -6.79,-3.722 -13.621,-7.485 -20.448,-11.267 m -38.199,-12.658 c 0.891,0.601 1.784,1.203 2.678,1.806 1.285,0.628 2.564,1.253 3.848,1.88 10.114,4.94 20.166,9.849 30.055,14.704 -0.899,-0.577 -1.798,-1.155 -2.696,-1.732 -11.38,-5.541 -22.728,-11.109 -33.885,-16.658 M -358.063,9.143 c 25.39,13.77 52.886,28.917 79.758,44.171 4.391,2.493 8.689,4.945 12.888,7.354 -1.166,-0.78 -2.325,-1.556 -3.494,-2.339 -14.526,-8.793 -29.162,-17.628 -43.575,-26.285 -2.11,-1.16 -4.202,-2.312 -6.28,-3.46 C -332.405,21.9 -345.588,15.4 -358.063,9.143 m -72.628,-56.986 c 14.623,12.264 38.661,26.975 67.286,42.647 -16.799,-11.168 -32.338,-21.316 -45.857,-29.763 -8.572,-5.356 -15.624,-9.572 -21.429,-12.884 m -12.657,-13.345 c 0.577,0.909 1.245,1.842 2.001,2.799 21.455,10.511 60.452,36.184 114.285,72.417 10.41,5.349 21.097,10.733 31.913,16.111 -14.974,-9.788 -29.638,-19.479 -43.561,-28.736 -19.736,-11.557 -37.06,-22.044 -51.854,-31.396 -9.908,-6.262 -18.657,-11.997 -26.265,-17.219 -11.167,-6.152 -20.245,-10.958 -26.519,-13.976 m -1.374,5.844 c 0.73,0.699 1.519,1.423 2.367,2.173 -0.548,-0.6 -1.068,-1.192 -1.561,-1.779 -0.273,-0.135 -0.543,-0.267 -0.806,-0.394 m 5.17,-8.664 c -2.344,-1.928 -4.429,-3.739 -6.254,-5.436 -0.147,0.784 -0.143,1.621 0.01,2.517 1.654,0.72 3.699,1.67 6.244,2.919 m 207.365,110.195 c -17.231,-10.291 -34.827,-20.825 -52.211,-31.233 -21.463,-12.849 -43.12,-25.815 -63.439,-37.927 -28.471,-14.858 -52.8,-28.798 -69.398,-40.954 -5.211,-3.016 -9.969,-5.746 -14.2,-8.14 21.46,27.461 114.57,76.031 199.248,118.254 m -13.345,-18.86 c -16.98,-8.087 -33.886,-16.177 -50.255,-24.162 4.494,2.69 9.024,5.402 13.579,8.129 29.97,17.942 62.38,37.346 92.588,55.275 -17.984,-12.469 -36.826,-25.768 -55.912,-39.242 m 86.961,55.327 c 57.217,28.428 87.217,44.231 89.203,50.788 0.077,0.252 0.123,0.492 0.145,0.718 3.963,1.143 7.15,1.515 9.443,1.01 1.598,-0.351 2.187,-1.092 2.492,-1.619 0.24,-0.416 0.514,-1.116 0.117,-2.39 -0.562,-1.81 -2.051,-3.893 -4.359,-6.217 -9.536,1.126 -45.376,-20.886 -102.817,-58.743 -18.758,-9.162 -38.641,-18.638 -58.459,-28.063 22.096,15.562 43.961,30.844 64.235,44.516 m 31.094,20.443 c 22.868,13.243 40.728,23.248 49.716,27.572 -4.463,-3.202 -13.279,-8.585 -30.373,-17.631 -6.022,-3.188 -12.725,-6.651 -19.955,-10.33 0.203,0.129 0.409,0.26 0.612,0.389 m -3.969,-20.509 c 6.93,4.456 13.516,8.634 19.694,12.477 24.902,15.49 37.459,21.872 43.785,24.331 -12.777,-9.819 -35.666,-22.61 -63.479,-36.808 m 26.409,8.901 c -17.369,-9.537 -38.892,-20.593 -62.51,-32.491 1.699,1.124 3.385,2.237 5.062,3.343 37.636,18.355 69.299,34.739 88.791,47.836 -7.144,-4.916 -17.418,-11.041 -31.343,-18.688 m -93.811,-48.168 c -3.981,-1.987 -7.994,-3.988 -12.028,-5.999 -14.934,-7.447 -30.014,-14.967 -44.945,-22.478 3.92,2.765 7.856,5.544 11.8,8.328 0.218,0.154 0.433,0.306 0.65,0.459 5.689,2.71 11.355,5.404 16.978,8.078 12.126,5.766 24.034,11.428 35.567,16.951 -2.636,-1.753 -5.316,-3.536 -8.022,-5.339 m -229.015,-133.9 c 8.235,1.091 20.625,6.505 36.051,15.045 -4.957,-3.867 -9.254,-7.49 -12.889,-10.869 -12.681,-6.222 -22.302,-9.736 -27.657,-9.573 1.146,1.692 2.652,3.493 4.495,5.397 m 119.952,68.975 c 9.049,6.242 18.34,12.72 27.786,19.344 17.617,8.994 35.5,17.967 52.915,26.665 -4.68,-3.121 -9.4,-6.268 -14.157,-9.434 -6.156,-3.264 -12.294,-6.547 -18.392,-9.837 -17.468,-9.427 -33.523,-18.343 -48.152,-26.738 m -113.728,-63.204 c 20.901,17.759 64.035,42.216 112.593,67.615 -19.505,-13.464 -38.136,-26.015 -54.725,-36.549 -26.435,-16.786 -45.8,-27.177 -57.868,-31.066 m 139.832,73.023 c -38.643,-25.358 -76.38,-49.36 -104.982,-65.199 19.874,15.125 52.519,36.106 104.982,65.199 m -154.064,-68.91 c 0.068,0.432 0.172,0.882 0.313,1.348 0.013,0.04 0.024,0.079 0.037,0.118 0.539,0.299 1.097,0.61 1.67,0.929 -0.728,-0.81 -1.403,-1.61 -2.02,-2.395 m 20.184,12.744 c 5.161,2.983 11.049,6.413 17.778,10.359 15.248,8.943 32.836,19.377 51.898,30.74 24.523,12.796 51.992,26.227 79.711,39.527 -5.327,-3.754 -10.653,-7.498 -15.953,-11.214 -27.548,-14.053 -53.95,-27.907 -77.239,-41.022 -35.537,-20.01 -58.527,-35.339 -70.274,-46.969 -1.087,-0.056 -2.044,0.01 -2.867,0.192 -0.72,0.158 -1.243,0.393 -1.631,0.653 3.161,5.133 9.596,11.115 18.577,17.734 m 116.574,21.445 c -39.215,-22.761 -72.231,-41.549 -93.197,-52.807 -2.459,-1.021 -4.783,-1.941 -6.979,-2.767 8.982,7.252 22.754,15.719 39.676,24.97 11.491,5.939 22.648,11.736 33.493,17.401 8.646,4.314 17.691,8.728 27.007,13.203 m 189.21,123.359 c -11.817,-8.37 -24.982,-17.621 -39.04,-27.378 -2.966,-1.972 -6.004,-3.993 -9.124,-6.069 -20.793,-13.837 -43.942,-29.24 -67.652,-44.774 -33.968,-18.645 -68.395,-36.896 -98.857,-52.802 -13.535,-6.718 -26.089,-13.188 -37.28,-19.337 -15.326,-7.9 -28.638,-14.709 -39.052,-20.035 -3.47,-1.775 -6.6,-3.375 -9.352,-4.785 1.961,2.457 4.571,5.258 7.973,8.444 37.716,18.391 99.623,58.911 163.126,101.196 46.199,24.496 93.242,47.935 129.258,65.54 m 41.938,20.313 c 1.269,0.609 2.491,1.196 3.658,1.757 -2.584,-2.287 -5.664,-4.829 -9.313,-7.655 -9.684,-5.141 -20.821,-11.889 -33.061,-19.83 -2.798,-1.525 -5.679,-3.119 -8.627,-4.774 18.609,12.277 35.171,23.04 47.343,30.502 m 15.353,15.604 c -0.306,-0.853 -0.794,-1.82 -1.5,-2.911 -2.598,-1.256 -5.85,-3.029 -9.835,-5.358 4.948,3.595 8.787,6.401 11.335,8.269 m 13.013,-18.801 c -18.624,-20.571 -79.853,-51.37 -144.571,-81.904 10.711,7.777 21.305,15.418 31.622,22.752 34.339,20.41 65.228,38.873 87.176,52.019 10.979,4.454 19.582,6.837 25.773,7.133 m -7.774,3.656 c 1.932,0.366 3.631,0.487 5.078,0.34 -1.989,-0.238 -4.154,-0.634 -6.494,-1.189 0.48,0.288 0.954,0.572 1.416,0.849 m 13.411,8.054 c 0.164,-1.064 0.047,-2.212 -0.35,-3.468 -0.287,-0.909 -0.708,-1.853 -1.253,-2.825 -1.165,1.262 -2.712,2.118 -4.622,2.553 2.701,1.622 4.797,2.881 6.225,3.74 m 4.328,-15.189 c 0.723,-1.252 0.963,-2.674 0.726,-4.314 -4.118,-0.984 -8.81,-2.608 -14.001,-4.795 4.9,4.304 7.977,8.049 8.903,11.137 0.096,0.317 0.171,0.629 0.229,0.937 1.952,-0.551 3.311,-1.525 4.143,-2.965 m 4.392,-11.19 c 0.42,1.445 0.162,2.553 -0.192,3.289 0.009,0.024 0.017,0.045 0.025,0.069 2.896,0.486 5.386,0.533 7.419,0.096 1.587,-0.339 2.802,-0.983 3.685,-1.954 -2.545,-2.295 -10.96,-7.504 -23.292,-14.666 0.843,0.821 1.648,1.63 2.408,2.422 5.797,4.497 9.172,8.081 9.947,10.744 m 8.014,-11.817 c 0.422,-0.783 0.44,-1.781 0.054,-3.048 -0.205,-0.674 -0.513,-1.411 -0.941,-2.214 -10.184,-4.029 -36.104,-17.109 -106.088,-57.793 -14.318,-7.198 -29.183,-14.708 -44.225,-22.397 3.251,2.077 6.489,4.143 9.71,6.195 6.601,3.581 13.099,7.153 19.456,10.699 36.527,20.378 64.128,37.539 83.088,51.696 2.807,1.581 5.509,3.11 8.093,4.579 3.708,1.971 7.102,3.706 10.199,5.217 16.895,8.237 20.193,7.305 20.654,7.066 m 4.494,-17.592 c 0,-0.287 -0.049,-0.631 -0.177,-1.049 -0.152,-0.5 -0.379,-1.023 -0.676,-1.568 -9.176,-4.729 -22.528,-12.872 -40.219,-24.261 -1.405,-0.715 -2.822,-1.435 -4.249,-2.16 -3.362,-1.709 -6.847,-3.48 -10.437,-5.306 9.157,5.99 17.196,11.525 24.108,16.599 16.117,9.906 27.656,16.538 31.65,17.745 m -148.18,-91.998 c 6.498,3.181 12.909,6.326 19.197,9.424 -14.142,-8.371 -29.799,-17.718 -47.112,-28.143 -10.742,-6.468 -21.459,-12.952 -31.994,-19.35 18.825,11.836 38.871,24.598 59.909,38.069 m -44.626,-21.831 c 3.661,1.797 7.325,3.591 10.974,5.376 -30.576,-19.448 -61.096,-38.566 -88.255,-54.808 -27.039,-16.17 -46.287,-26.774 -59.933,-33.556 12.604,11.728 35.159,26.967 62.836,43.709 23.242,12.038 48.732,25.438 74.378,39.279 m 118.916,65.46 c -3.58,-2.371 -7.271,-4.821 -11.075,-7.352 -9.985,-5.127 -20.474,-10.405 -31.256,-15.768 0.008,0.005 0.017,0.011 0.024,0.015 1.574,1.012 3.143,2.021 4.71,3.029 3.702,2.154 7.322,4.276 10.84,6.357 9.264,4.772 18.226,9.363 26.757,13.719 m 41.263,42.573 c 6.591,3.538 11.949,6.32 16.284,8.487 -4.643,-2.478 -10.138,-5.335 -16.284,-8.487 m -263.988,-146.958 c 9.182,6.22 18.878,12.954 28.984,20.073 3.665,2.103 7.433,4.245 11.309,6.427 4.386,2.467 8.856,4.957 13.386,7.457 -19.217,-12.304 -37.372,-23.838 -53.679,-33.957 m 107.557,56.601 c 31.326,18.664 57.563,34.113 79.526,46.887 10.543,5.302 20.645,10.361 30.095,15.094 26.219,13.13 44.601,22.388 57.28,28.993 -3.129,-2.565 -6.752,-5.375 -10.922,-8.447 -1.414,-0.866 -2.889,-1.774 -4.425,-2.723 -18.695,-11.547 -43.417,-27.384 -70.023,-44.481 -38.741,-19.987 -81.874,-42.711 -120.301,-64.399 -5.659,-3.194 -11.113,-6.307 -16.355,-9.335 -27.57,-13.935 -52.306,-27.031 -71.491,-38.599 -2.562,-1.299 -5.056,-2.563 -7.471,-3.784 33.984,20.67 83.859,50.868 134.087,80.794 m -64.17,-11.979 c 15.386,8.187 31.335,16.564 47.338,24.935 -1.271,-0.916 -2.533,-1.827 -3.802,-2.742 -1.266,-0.914 -2.528,-1.825 -3.796,-2.739 -19.55,-10.971 -37.778,-21.32 -54.374,-30.93 -7.349,-3.651 -14.5,-7.188 -21.399,-10.594 11.499,7.018 23.585,14.427 36.033,22.07 m 129.115,88.282 c -23.86,-12.479 -49.812,-25.56 -75.207,-38.298 3.22,2.351 6.451,4.711 9.674,7.063 22.919,10.695 45.123,21.176 65.533,31.235 M -204.546,2.505 c -4.006,-1.87 -8.005,-3.734 -11.997,-5.591 7.639,4.506 15.264,9.012 22.838,13.494 -3.594,-2.617 -7.213,-5.256 -10.841,-7.903 m 37.694,-3.936 c 14.75,10.46 29.316,20.635 43.278,30.096 7.275,4.352 14.319,8.539 21.075,12.52 46.404,27.346 64.159,35.987 70.756,38.247 -1.502,-2.362 -3.556,-4.901 -6.103,-7.586 -1.199,-0.925 -2.566,-1.936 -4.126,-3.042 -8.452,-5.996 -20.831,-13.619 -37.844,-23.306 -24.124,-13.737 -54.307,-29.772 -87.036,-46.929 m -27.784,-24.571 c 14.571,8.096 29.169,16.161 43.474,24.048 -2.781,-1.763 -5.594,-3.549 -8.447,-5.364 -11.462,-6.236 -23.199,-12.485 -35.027,-18.684 m -21.115,-22.336 c 2.759,1.774 5.524,3.553 8.292,5.333 7.519,3.948 15.064,7.877 22.591,11.768 -5.673,-3.366 -11.535,-6.85 -17.59,-10.457 -14.425,-8.591 -28.839,-17.217 -42.862,-25.636 9.421,6.038 19.283,12.377 29.569,18.992 m 11.46,12.437 c -1.659,-1.066 -3.321,-2.134 -4.998,-3.211 -13.241,-6.95 -26.362,-13.946 -39.071,-20.877 2.478,1.78 4.969,3.571 7.478,5.377 12.104,6.116 24.371,12.379 36.591,18.711 m 21.397,21.266 c -3.679,-2.04 -7.339,-4.072 -10.951,-6.079 0.608,0.437 1.202,0.864 1.81,1.3 3.086,1.612 6.13,3.204 9.141,4.779 m -11.398,-1.145 c -1.445,-0.755 -2.895,-1.512 -4.346,-2.27 -4.283,-2.237 -8.508,-4.444 -12.682,-6.628 10.662,6.543 21.289,13.053 31.747,19.439 -4.886,-3.488 -9.794,-7.005 -14.719,-10.541 m -38.657,-7.724 c 3.522,1.767 7.036,3.528 10.527,5.277 27.698,13.883 54.942,27.538 79.74,40.386 -32.114,-19.375 -67.614,-41.19 -102.284,-62.495 -7.885,-4.846 -15.793,-9.705 -23.647,-14.527 -11.955,-6.368 -23.212,-12.427 -33.711,-18.166 21.646,14.906 45.154,31.879 69.375,49.525 m -36.254,-13.468 c 7.141,4.89 14.4,9.839 21.72,14.798 5.756,2.679 11.531,5.362 17.286,8.036 2.624,1.22 5.239,2.434 7.853,3.65 -4.26,-3.111 -8.545,-6.236 -12.842,-9.366 -11.514,-5.774 -22.9,-11.493 -34.017,-17.118 m 12.578,1.567 c -51.291,-37.016 -101.498,-71.611 -130.417,-82.94 11.601,7.751 28.833,19.683 54.429,37.495 11.28,7.851 23.527,16.373 36.411,25.287 12.877,6.646 26.199,13.412 39.577,20.158 m 244.054,64.397 c -4.816,-4.587 -14.507,-12.317 -33.923,-25.193 -31.804,-14.203 -79.815,-42.386 -143.608,-84.329 -4.579,-3.011 -9.14,-6.029 -13.67,-9.041 -15.603,-8.767 -30.963,-17.316 -45.536,-25.373 7.891,5.46 16.232,11.253 25.021,17.363 43.676,30.364 92.864,64.561 133.652,89.75 7.196,4.125 13.782,7.86 19.804,11.238 6.145,3.309 11.935,6.507 17.332,9.59 6.436,3.505 11.999,6.462 16.799,8.949 10.241,4.537 18.546,7.098 24.129,7.046 m 4.561,5.574 c -0.136,-0.378 -0.416,-0.915 -0.966,-1.662 -1.009,0.206 -2.12,0.306 -3.331,0.306 -0.165,0 -0.336,-0.002 -0.505,-0.005 2.414,0.899 3.902,1.274 4.802,1.361 m 0.339,-6.643 c 0.242,-0.147 0.465,-0.31 0.667,-0.49 -0.997,-0.859 -2.72,-2.135 -5.101,-3.786 1.858,1.645 3.304,3.055 4.434,4.276 m -124.264,-76.326 c 17.207,10.631 32.171,19.469 45.164,26.773 -5.588,-3.406 -11.464,-6.949 -17.619,-10.624 -8.423,-4.902 -17.584,-10.271 -27.545,-16.149 M -14.25,10.151 c -5.704,-4.116 -16.268,-10.838 -35.536,-21.815 -25.017,-14.251 -58.468,-32.2 -93.883,-51.202 -1.663,-0.893 -3.32,-1.782 -4.97,-2.667 36.487,21.883 66.513,40.08 89.533,54.262 17.509,9.781 29.321,15.997 37.241,19.866 2.953,0.8 5.469,1.3 7.615,1.556 m -227.079,-255.334 c 0.19,0.162 0.387,0.328 0.592,0.497 1.531,0.791 3.174,1.69 4.927,2.692 -1.95,-1.127 -3.824,-2.209 -5.519,-3.189 m -21.174,16.102 c 3.218,2.562 9.651,6.858 22.402,14.007 11.173,6.262 25.161,13.609 40.389,21.492 -27.476,-16.254 -52.365,-30.598 -62.791,-35.499 m 14.413,339.607 c 0.097,0.12 0.193,0.24 0.287,0.359 0.492,0.288 0.979,0.573 1.466,0.857 -0.542,-0.384 -1.127,-0.789 -1.753,-1.216 m -3.895,7.809 c 1.405,0.619 2.506,1.005 3.264,1.128 0.029,-0.117 0.051,-0.245 0.065,-0.384 -1.04,-0.182 -2.153,-0.431 -3.329,-0.744 m 1.406,-4.174 c -27.641,-16.215 -60.061,-36.422 -94.869,-58.695 -9.716,-4.972 -19.526,-9.914 -29.097,-14.715 11.993,7.762 24.827,16.162 38.368,25.053 14.423,9.47 29.563,19.412 43.169,28.132 18.058,10.519 33.246,18.18 42.635,20.525 -0.066,-0.1 -0.135,-0.199 -0.206,-0.3 m -42.473,-30.608 c 6.518,4.036 12.976,8.001 19.327,11.859 0.948,0.575 1.891,1.147 2.822,1.711 -6.389,-4.256 -13.889,-8.818 -22.149,-13.57 M -388.823,27.47 c -16.892,-9.843 -32.849,-19.246 -46.352,-27.451 -4.727,-2.873 -8.998,-5.504 -12.838,-7.909 9.895,6.567 22.385,15.032 38.042,25.687 0.745,0.507 1.491,1.015 2.245,1.528 7.901,3.992 16.122,8.109 24.494,12.302 1.182,0.592 2.366,1.186 3.549,1.778 -3.04,-1.972 -6.077,-3.944 -9.14,-5.935 M -448.537,3.064 c 20.499,12.217 50.951,30.365 81.565,48.913 -12.376,-8.258 -25.286,-16.983 -38.559,-26.002 -2.206,-1.385 -4.385,-2.745 -6.535,-4.079 -15.78,-7.998 -29.267,-14.991 -40.146,-21.023 1.189,0.709 2.415,1.44 3.675,2.191 m -30.286,-24.968 c 1.383,1.71 4.936,4.843 13.831,10.393 2.712,0.855 5.954,2.175 9.692,3.923 -10.854,-7.122 -19.418,-12.454 -23.523,-14.316 m -0.463,32.069 c 0.413,1.4 1.431,3.207 3.409,5.531 0.627,-0.327 1.319,-0.569 2.07,-0.722 0.863,-0.176 1.821,-0.229 2.874,-0.163 -2.551,-1.903 -4.851,-3.717 -6.874,-5.43 -0.655,-0.268 -1.217,-0.475 -1.681,-0.619 -0.017,0.419 0.05,0.884 0.202,1.403 m 7.474,31.707 c -0.671,-0.694 -1.28,-1.367 -1.831,-2.024 -0.341,-0.022 -0.66,-0.022 -0.955,10e-4 0.702,0.554 1.64,1.234 2.786,2.023 m 9.78,-2.585 c -4.979,-3.259 -8.815,-5.586 -10.886,-6.479 0.02,0.1 0.046,0.206 0.079,0.32 0.245,0.855 0.736,1.797 1.452,2.816 2.571,0.529 5.698,1.66 9.355,3.343 m 58.777,42.209 c -23.687,-16.525 -47.743,-32.68 -61.739,-38.941 12.05,10.342 36.141,24.718 61.739,38.941 m 51.137,27.557 c 33.467,17.745 47.329,25.334 52.207,29.431 4.828,1.708 8.667,2.41 11.227,1.845 1.311,-0.288 1.784,-0.878 2.026,-1.297 0.057,-0.099 -0.012,-0.357 -0.034,-0.434 -0.279,-0.945 -1.073,-2.07 -2.322,-3.351 -11.235,-0.445 -33.31,-15.048 -66.197,-39.319 -8.021,-4.173 -16.183,-8.367 -24.144,-12.459 -17.234,-8.857 -32.541,-16.778 -45.675,-23.825 1.039,0.731 2.102,1.48 3.185,2.242 19.414,13.673 42.974,30.264 65.035,44.679 1.589,0.843 3.152,1.672 4.692,2.488 m 63.541,20.944 c 0.367,0.314 0.719,0.624 1.054,0.928 0.074,-0.012 0.146,-0.025 0.218,-0.04 0.059,-0.012 0.116,-0.025 0.171,-0.038 -0.416,-0.254 -0.899,-0.537 -1.443,-0.85 m -38.201,-18.945 c 11.632,7.958 21.934,14.322 29.482,17.579 -7.214,-4.984 -17.57,-11.037 -29.482,-17.579 M -471.195,26.107 c 1.604,1.494 3.673,3.144 6.14,4.925 -2.224,-1.694 -4.276,-3.338 -6.14,-4.925 m 45.33,17.572 c -13.008,-7.633 -24.515,-14.721 -33.989,-21.075 -5.537,-2.621 -9.943,-3.936 -12.796,-3.504 7.764,7.506 23.554,19.083 54.234,36.903 12.212,7.092 25.259,14.304 38.278,21.308 -15.217,-11.447 -31.227,-23.485 -45.727,-33.632 m 42.695,19.34 c -16.938,-10.087 -33.813,-20.047 -48.67,-28.641 2.785,1.872 5.649,3.841 8.587,5.898 12.671,7.431 26.368,15.159 40.083,22.743 m -81.605,-3.724 c 3.586,2.765 9.27,6.674 18.268,12.167 1.264,0.771 2.562,1.555 3.891,2.351 -8.527,-5.649 -16.488,-10.905 -22.159,-14.518 m 9.529,20.515 c -4.928,-2.203 -7.872,-3.105 -9.626,-3.421 6.164,4.335 23.25,14.059 39.862,23.512 2.758,1.57 5.471,3.116 8.135,4.636 -16.809,-10.59 -29.221,-18.609 -38.371,-24.727 m 46.789,56.505 c 3.882,2.731 9.692,6.82 13.3,8.826 -3.298,-3.165 -11.131,-8.096 -18.945,-12.75 1.497,1.014 3.34,2.303 5.645,3.924 m 327.479,7.562 c 1.183,0.022 2.164,-0.073 2.973,-0.262 0.161,-0.037 0.316,-0.078 0.462,-0.123 -1.401,-0.723 -3.285,-1.695 -5.612,-2.899 1.058,1.194 1.787,2.288 2.177,3.284 M 3.731,3.143 C 3.23,4.012 2.216,5.142 0.232,5.588 -0.08,5.659 -0.411,5.709 -0.766,5.739 c 0.388,0.583 0.611,1.082 0.737,1.529 0.327,1.156 0.035,2.023 -0.268,2.546 -0.934,1.62 -2.326,2.839 -4.15,3.643 0.322,0.479 0.54,0.917 0.653,1.313 0.326,1.147 0.036,2.01 -0.266,2.531 -0.375,0.651 -1.015,1.119 -1.803,1.32 -0.978,0.249 -2.45,0.62 -10.002,-2.611 4.191,2.775 7.402,4.991 9.553,6.594 2.841,2.119 5.085,3.793 3.873,5.893 -0.65,1.126 -1.507,2.056 -2.564,2.784 0.622,0.979 0.963,1.774 1.155,2.446 0.469,1.64 0.087,2.818 -0.317,3.517 -0.291,0.505 -0.876,1.165 -2.007,1.446 -1.224,0.307 -3.187,0.796 -13.431,-3.669 0.748,0.607 1.458,1.204 2.134,1.791 17.867,9.27 19.666,10.658 20.059,11.98 0.166,0.561 0.091,1.237 -0.202,1.744 -0.309,0.534 -0.925,1.23 -2.106,1.506 -1.592,0.369 -4.5,-0.401 -8.75,-2.291 0.027,1.181 -0.253,2.284 -0.839,3.298 -0.351,0.609 -0.94,1.04 -1.658,1.215 -1.311,0.317 -3.518,0.009 -12.223,-4.708 1.076,1.048 2.071,2.063 2.982,3.042 7.68,4.335 10.649,6.59 11.072,8 0.198,0.66 0.123,1.342 -0.211,1.92 -0.36,0.626 -0.973,1.075 -1.724,1.266 -0.378,0.095 -0.843,0.214 -1.845,0.061 0.534,2.195 0.314,4.155 -0.656,5.836 -0.403,0.697 -1.218,1.609 -2.823,1.998 -0.958,0.232 -2.196,0.227 -3.715,-0.01 9.836,6.196 10.162,7.367 10.444,8.378 0.182,0.654 0.102,1.326 -0.225,1.891 -1.505,2.607 -3.929,4.285 -7.208,4.987 -2.108,0.452 -4.603,0.467 -7.463,0.079 0.063,2.037 -0.398,3.917 -1.38,5.619 -1.279,2.214 -3.265,3.79 -5.917,4.699 0.704,1.236 1.244,2.437 1.613,3.604 1.036,3.28 0.779,6.299 -0.765,8.973 -0.286,0.496 -0.759,0.855 -1.313,0.998 -0.553,0.144 -1.142,0.059 -1.633,-0.237 -5.022,-3.021 -10.139,-6.098 -15.325,-9.214 -2.821,-0.659 -5.992,-1.711 -9.492,-3.124 2.281,2.158 4.195,4.163 5.749,6.018 1.343,0.647 2.512,1.211 3.496,1.687 4.552,2.208 4.552,2.208 4.85,3.17 0.176,0.568 0.108,1.185 -0.19,1.699 -0.37,0.642 -0.993,1.093 -1.754,1.271 -0.426,0.099 -1,0.076 -1.731,-0.077 0.632,2.195 0.467,4.148 -0.49,5.806 -0.303,0.525 -0.816,0.897 -1.41,1.021 -0.592,0.125 -1.213,-0.011 -1.702,-0.371 -0.334,-0.246 -14.406,-10.602 -36.942,-26.735 -29.571,-14.308 -72.204,-35.2 -116.915,-58.256 3.048,2.034 6.081,4.056 9.092,6.064 83.948,41.924 135.184,68.384 138.613,79.776 0.387,1.291 0.23,2.322 -0.061,3.065 2.654,2.728 4.378,5.213 5.069,7.433 0.661,2.126 0.494,4.075 -0.497,5.791 -1.093,1.896 -2.867,3.125 -5.27,3.652 -10.732,2.361 -36.455,-10.857 -70.239,-32.249 -4.413,-2.551 -9.169,-5.316 -14.299,-8.311 -12.676,-7.401 -26.526,-15.565 -41.122,-24.216 -1.662,-0.821 -3.329,-1.645 -5.002,-2.471 -29.988,-14.813 -62.015,-30.634 -92.819,-46.433 23.694,14.021 47.757,28.353 70.514,41.948 26.524,14.381 51.686,27.792 73.138,39.123 7.634,3.911 14.578,7.558 20.794,10.946 27.284,14.314 44.835,23.327 45.234,23.532 0.52,0.266 0.907,0.734 1.072,1.294 0.165,0.561 0.093,1.164 -0.199,1.669 -1.055,1.828 -2.82,3.04 -5.248,3.603 -1.194,0.277 -2.596,0.388 -4.183,0.332 -0.29,0.453 -0.744,0.782 -1.265,0.918 -0.628,0.162 -0.903,0.235 -4.13,-1.585 -3.235,-0.63 -7.002,-1.697 -11.305,-3.204 2.164,1.678 2.699,2.556 2.912,3.295 0.196,0.681 0.116,1.379 -0.223,1.967 -0.952,1.649 -2.513,2.734 -4.641,3.224 -2.206,0.511 -5.175,0.303 -8.826,-0.546 -0.268,0.239 -0.595,0.418 -0.933,0.504 -0.767,0.197 -1.357,0.347 -8.009,-3.318 -0.863,-0.326 -1.743,-0.671 -2.649,-1.039 0.291,1.784 0.003,3.438 -0.86,4.933 -0.868,1.502 -2.298,2.498 -4.253,2.959 -2.028,0.478 -5.026,0.543 -10.269,-0.853 -0.008,0.016 -0.016,0.03 -0.025,0.045 -0.333,0.576 -1.002,1.33 -2.3,1.647 -3.096,0.757 -10.579,-2.038 -22.132,-7.976 0.084,0.839 -0.15,1.478 -0.39,1.894 -0.516,0.893 -1.576,2.064 -3.697,2.568 -9.344,2.224 -37.962,-11.4 -77.862,-34.429 -0.092,0.025 -0.187,0.048 -0.283,0.07 -0.621,0.142 -1.299,0.225 -2.039,0.251 -0.089,1.016 -0.392,1.975 -0.909,2.871 -0.396,0.685 -1.066,1.17 -1.888,1.365 -2.551,0.606 -8.904,-2.192 -20.422,-8.935 1.289,0.932 2.433,1.782 3.428,2.548 4.847,3.732 6.801,5.757 5.572,7.887 -0.291,0.503 -0.775,0.867 -1.34,1.005 -0.896,0.22 -0.895,0.22 -5.392,-2.653 -43.563,-27.835 -82.423,-52.124 -115.499,-72.193 -81.453,-49.42 -99.276,-55.781 -103.045,-55.781 -0.023,0 -0.047,0 -0.069,0 -0.002,0.182 0.032,0.396 0.102,0.641 0.679,2.383 3.529,5.622 8.078,9.51 6.748,2.864 22.436,11.083 61.165,33.76 34.545,20.228 76.194,45.379 106.605,63.744 2.476,1.496 4.915,2.969 7.296,4.406 30.78,16.638 36.645,20.368 37.288,22.627 0.181,0.631 0.104,1.284 -0.215,1.837 -0.287,0.496 -0.768,0.86 -1.322,1.003 -1.146,0.294 -1.145,0.295 -14.1,-7.453 -6.179,-3.696 -14.409,-8.659 -23.932,-14.409 -7.013,-3.787 -14.59,-7.847 -22.281,-11.968 -23.535,-12.612 -46.416,-24.962 -67.234,-36.555 5.032,3.761 10.141,7.604 15.283,11.473 7.054,5.306 14.289,10.749 21.456,16.064 12.973,6.786 25.337,13.134 36.157,18.689 34.995,17.967 37.376,19.412 37.913,21.235 0.165,0.56 0.088,1.251 -0.204,1.756 -0.588,1.017 -1.405,1.822 -2.414,2.387 0.867,1.117 1.445,2.15 1.725,3.105 0.507,1.72 0.082,3 -0.363,3.771 -0.997,1.727 -2.613,2.848 -4.802,3.33 -2.601,0.574 -6.076,0.189 -10.335,-1.035 -0.459,0.674 -1.277,1.442 -2.699,1.755 -1.685,0.37 -4.094,-0.054 -7.208,-1.211 1.196,1.571 1.336,2.766 0.677,3.908 -0.411,0.711 -1.242,1.638 -2.869,2.021 -2.764,0.648 -7.821,-0.744 -14.703,-3.764 -0.027,0.608 -0.219,1.09 -0.414,1.429 -0.397,0.687 -1.202,1.585 -2.778,1.953 -1.933,0.451 -5.002,-0.1 -9.132,-1.564 4.888,3.359 7.785,5.38 7.877,5.444 0.943,0.658 1.194,1.946 0.568,2.91 -0.626,0.963 -1.904,1.259 -2.889,0.665 -0.151,-0.09 -6.281,-3.786 -15.938,-9.662 4.314,3.49 6.896,6.307 7.458,8.38 0.359,1.324 0.03,2.304 -0.31,2.892 -0.283,0.49 -0.749,0.848 -1.295,0.994 -0.884,0.236 -0.885,0.235 -6.769,-3.141 -3.26,-1.871 -7.907,-4.548 -13.477,-7.76 -10.58,-6.101 -24.494,-14.139 -38.57,-22.274 5.351,3.536 10.516,6.961 15.257,10.124 7.277,4.856 12.655,8.493 16.44,11.121 2.098,1.455 3.7,2.598 4.763,3.397 1.561,1.173 3.176,2.385 2.151,4.162 -0.312,0.54 -0.824,0.921 -1.44,1.073 -1.979,0.491 -5.372,-1.273 -36.761,-21.109 -16.036,-10.134 -38.967,-24.625 -48.27,-29.085 5.115,4.33 17.611,11.583 26.495,16.741 25.217,14.638 35.187,21.119 32.17,26.344 -0.39,0.676 -1.041,1.145 -1.833,1.319 -2.656,0.585 -7.151,-2.162 -19.312,-10.718 -3.65,-2.569 -8.131,-5.722 -9.677,-6.424 -0.441,0.051 -0.904,-0.031 -1.319,-0.271 -1.02,-0.589 -1.369,-1.894 -0.78,-2.914 0.325,-0.562 0.881,-0.966 1.525,-1.108 0.507,-0.111 1.034,-0.082 1.762,0.182 -1.623,-0.948 -3.197,-1.862 -4.678,-2.721 -24.32,-14.118 -33.247,-19.909 -30.45,-24.753 0.348,-0.603 0.93,-1.032 1.639,-1.206 1.846,-0.457 6.143,1.321 14.841,6.283 -6.026,-3.962 -11.375,-7.482 -15.497,-10.211 -2.71,-1.795 -4.891,-3.248 -6.391,-4.263 -2.802,-1.898 -3.961,-2.683 -2.936,-4.457 0.283,-0.49 0.749,-0.848 1.296,-0.994 0.547,-0.146 1.129,-0.069 1.619,0.215 32.066,18.556 87.307,50.503 109.25,63.132 -4.055,-3.182 -10.634,-7.793 -21.284,-14.431 -16.26,-10.135 -36.909,-21.887 -55.128,-32.255 -36.694,-20.881 -43.269,-25.007 -43.969,-27.587 -0.172,-0.635 -0.091,-1.287 0.227,-1.838 0.405,-0.703 1.23,-1.617 2.854,-1.977 0.341,-0.076 0.77,-0.172 1.393,-0.196 -14.849,-10.551 -14.016,-11.992 -13.111,-13.559 0.295,-0.511 0.801,-0.886 1.375,-1.02 1.299,-0.305 1.303,-0.297 21.863,13.42 7.03,4.691 15.347,10.239 24.337,16.168 10.16,5.763 23.278,13.693 40.261,24.582 9.524,6.106 18.907,12.274 27.394,17.931 25.376,14.6 32.802,16.215 34.957,15.989 -0.489,-0.639 -1.517,-1.667 -3.629,-3.298 -14.187,-7.223 -33.386,-18.902 -55.156,-32.84 -2.408,-1.335 -4.843,-2.682 -7.299,-4.042 -47.895,-26.512 -77.133,-43.176 -79.31,-51.018 -0.379,-1.366 -0.038,-2.383 0.315,-2.994 0.295,-0.51 0.85,-0.917 1.423,-1.052 1.776,-0.415 3.052,0.167 37.737,23.163 14.864,9.855 32.056,21.254 49.042,32.127 29.237,16.229 47.034,26.452 55.504,33.024 12.688,6.478 17.376,7.404 19.065,7.365 -6.95,-7.877 -59.988,-39.15 -99.193,-62.266 -18.295,-10.788 -35.576,-20.977 -48.12,-28.685 -6.728,-4.135 -11.601,-7.252 -14.897,-9.53 -4.474,-3.092 -6.943,-4.952 -5.638,-7.211 0.497,-0.861 1.478,-1.968 3.343,-2.441 -0.25,-0.522 -0.447,-1.028 -0.587,-1.517 -0.519,-1.807 -0.366,-3.446 0.456,-4.869 0.33,-0.572 0.862,-0.983 1.511,-1.171 -2.174,-2.182 -3.534,-4.13 -4.043,-5.859 -0.469,-1.593 -0.202,-2.834 0.184,-3.68 -2.352,-2.708 -3.902,-5.171 -4.546,-7.357 -0.645,-2.191 -0.474,-4.165 0.51,-5.869 0.093,-0.162 0.204,-0.31 0.33,-0.444 -2.962,-2.982 -4.821,-5.568 -5.43,-7.705 -0.578,-2.029 -0.099,-3.495 0.404,-4.367 0.31,-0.537 0.933,-1.238 2.143,-1.533 1.502,-0.367 4.351,-1.063 22.266,7.862 -1.878,-1.121 -3.551,-2.122 -4.999,-2.989 -2.074,-1.243 -3.686,-2.215 -4.777,-2.882 -1.92,-1.172 -3.437,-2.099 -2.379,-3.932 0.299,-0.516 0.819,-1.147 1.705,-1.6 -5.883,-4.13 -9.334,-7.474 -10.113,-10.071 -0.465,-1.55 -0.08,-2.713 0.325,-3.414 0.362,-0.627 0.967,-1.064 1.704,-1.233 2.085,-0.475 7.439,2.12 18.255,8.905 -0.491,-0.336 -0.967,-0.664 -1.428,-0.985 -10.843,-7.542 -12.09,-9.823 -10.785,-12.083 0.293,-0.508 0.811,-0.891 1.382,-1.027 1.59,-0.381 1.756,-0.425 47.509,29.589 11.66,7.65 25.066,16.444 39.516,25.86 14.479,8.441 29.375,17.049 43.403,25.154 104.308,60.274 108.045,63.748 105.869,67.516 -0.063,0.111 -0.135,0.226 -0.214,0.343 50.209,28.834 67.648,34.186 72.976,32.921 0.273,-0.065 0.496,-0.148 0.665,-0.247 -0.465,-0.869 -1.83,-2.428 -5.214,-5.213 -28.975,-16.003 -76.04,-45.797 -138.164,-85.47 -4.725,-3.018 -9.472,-6.049 -14.216,-9.077 -42.908,-24.844 -85.66,-49.06 -114.587,-65.445 -11.996,-6.795 -21.857,-12.381 -28.731,-16.31 -11.507,-6.579 -11.507,-6.579 -11.802,-7.664 -0.15,-0.548 -0.074,-1.14 0.211,-1.632 0.331,-0.575 0.997,-1.325 2.289,-1.64 1.8,-0.44 5.11,0.337 9.862,2.25 -1.01,-1.11 -1.897,-2.194 -2.656,-3.247 -0.574,-0.391 -0.639,-0.615 -0.781,-1.103 -0.006,-0.024 -0.013,-0.048 -0.019,-0.072 -0.901,-1.404 -1.56,-2.754 -1.963,-4.046 -0.856,-2.744 -0.64,-5.262 0.642,-7.482 0.372,-0.644 1.005,-1.11 1.783,-1.309 0.802,-0.204 1.897,-0.487 6.309,1.174 -0.298,-1.622 -0.06,-3.117 0.713,-4.456 0.395,-0.685 1.193,-1.577 2.744,-1.935 0.7,-0.16 1.555,-0.181 2.565,-0.062 -0.297,-1.548 -0.091,-2.949 0.616,-4.173 0.335,-0.581 0.895,-0.997 1.577,-1.173 0.529,-0.137 1.162,-0.303 3.187,0.326 0.046,-1.457 0.379,-2.839 1,-4.136 -3.362,-3.522 -5.38,-6.454 -6.075,-8.814 -0.534,-1.81 -0.404,-3.421 0.385,-4.787 0.306,-0.532 0.81,-0.911 1.417,-1.069 0.937,-0.245 1.892,-0.492 13.219,5.621 -0.005,-1.519 0.309,-2.948 0.941,-4.276 -0.326,-0.7 -0.595,-1.387 -0.804,-2.06 -1.001,-3.215 -0.751,-6.159 0.743,-8.747 0.28,-0.485 0.617,-0.919 1.01,-1.3 -0.13,-0.338 -0.244,-0.672 -0.343,-1 -0.852,-2.833 -0.634,-5.394 0.649,-7.616 1.599,-2.769 4.304,-4.57 8.038,-5.351 2.921,-0.612 6.542,-0.557 10.795,0.095 0.198,-0.593 0.455,-1.167 0.773,-1.717 0.323,-0.56 0.861,-0.961 1.512,-1.129 0.365,-0.093 0.81,-0.209 2.129,0.152 -0.519,-2.32 -0.22,-4.469 0.894,-6.397 0.601,-1.041 1.348,-1.934 2.235,-2.673 -0.109,-0.271 -0.203,-0.536 -0.281,-0.796 -0.593,-1.979 -0.435,-3.776 0.469,-5.342 0.338,-0.585 0.898,-0.991 1.577,-1.142 1.346,-0.302 4.282,0.942 10.793,4.948 3.129,0.45 6.677,1.384 10.602,2.759 -11.229,-5.951 -15.05,-8.599 -15.543,-10.218 -0.198,-0.655 -0.125,-1.331 0.207,-1.906 0.336,-0.583 0.898,-0.999 1.581,-1.171 0.774,-0.197 1.668,-0.423 6.033,1.513 -0.28,-0.552 -0.494,-1.084 -0.642,-1.591 -0.603,-2.074 -0.112,-3.579 0.406,-4.476 1.065,-1.845 2.78,-3.031 5.097,-3.527 2.559,-0.549 5.972,-0.169 10.158,1.038 0.368,-0.327 0.874,-0.626 1.565,-0.793 1.221,-0.299 3.187,0.011 5.875,0.898 -0.701,-0.916 -1.331,-1.809 -1.886,-2.68 -3.522,-2.154 -5.48,-3.354 -5.608,-3.432 -0.971,-0.596 -1.303,-1.849 -0.754,-2.847 0.55,-0.997 1.786,-1.387 2.808,-0.887 0.041,0.021 0.269,0.133 0.675,0.332 -0.393,-2.354 -0.045,-4.493 1.041,-6.375 0.468,-0.809 1.424,-1.872 3.324,-2.333 1.306,-0.317 3.027,-0.291 5.15,0.068 0.164,-0.586 0.404,-1.151 0.717,-1.694 0.977,-1.691 2.588,-2.809 4.79,-3.323 1.802,-0.42 4.095,-0.389 6.843,0.055 0.285,-0.326 0.664,-0.561 1.09,-0.666 0.563,-0.143 1.156,-0.047 1.647,0.262 0.082,0.05 0.97,0.606 2.584,1.613 18.298,5.154 49.988,22.615 87.602,45.803 -8.264,-5.692 -16.202,-11.118 -23.688,-16.163 -37.675,-20.594 -63.915,-34.604 -64.39,-34.857 -0.51,-0.272 -0.888,-0.739 -1.047,-1.295 -0.159,-0.556 -0.085,-1.152 0.204,-1.653 0.378,-0.655 1.137,-1.505 2.605,-1.833 3.561,-0.796 11.367,2.483 23.374,9.424 -4.69,-2.865 -8.476,-5.172 -11.037,-6.721 -1.288,-0.758 -2.559,-1.505 -3.834,-2.255 -0.745,-0.438 -1.152,-1.283 -1.03,-2.14 0.122,-0.855 0.748,-1.553 1.586,-1.766 0.437,-0.111 0.676,-0.173 1.583,0.267 l 0.023,-0.039 c 0.044,0.027 0.313,0.185 0.795,0.469 0.732,0.404 1.746,1.005 3.198,1.882 0.046,0.027 0.091,0.054 0.138,0.081 -1.632,-1.873 -2.665,-3.518 -3.065,-4.923 -0.512,-1.797 -0.084,-3.101 0.364,-3.879 0.303,-0.523 0.813,-0.894 1.405,-1.019 0.592,-0.127 1.209,0.006 1.698,0.361 0.177,0.13 4.77,3.469 12.747,9.186 -5.495,-4.393 -8.701,-7.854 -9.401,-10.331 -0.428,-1.514 -0.061,-2.622 0.322,-3.285 0.979,-1.696 2.571,-2.802 4.733,-3.289 0.744,-0.168 1.565,-0.255 2.467,-0.263 -0.326,-0.623 -0.336,-1.393 0.037,-2.046 0.567,-0.994 1.817,-1.363 2.834,-0.837 0.083,0.043 1.041,0.54 2.783,1.447 -0.108,-0.27 -0.205,-0.54 -0.289,-0.805 -0.785,-2.495 -0.586,-4.796 0.594,-6.839 0.409,-0.708 1.103,-1.206 1.955,-1.401 0.781,-0.176 1.885,-0.055 3.355,0.389 -0.424,-0.773 -0.734,-1.497 -0.934,-2.175 -0.521,-1.77 -0.392,-3.347 0.382,-4.688 1.158,-2.004 3.039,-3.309 5.593,-3.877 2.49,-0.554 5.695,-0.357 9.537,0.506 -0.091,-0.243 -0.172,-0.482 -0.243,-0.72 -0.691,-2.311 -0.507,-4.409 0.549,-6.237 0.399,-0.691 1.213,-1.597 2.823,-1.987 2.47,-0.601 7,0.412 13.298,2.811 0.125,-0.453 0.3,-0.835 0.48,-1.146 0.263,-0.455 0.648,-0.82 1.117,-1.07 -0.795,-1.219 -1.355,-2.368 -1.672,-3.447 -0.568,-1.938 -0.409,-3.694 0.472,-5.221 0.287,-0.497 0.763,-0.858 1.319,-1 0.557,-0.144 1.146,-0.055 1.637,0.244 82.715,50.346 207.417,124.667 223.715,130.276 -0.023,-0.138 -0.057,-0.289 -0.106,-0.455 -1.239,-4.216 -8.22,-10.328 -18.877,-17.585 -0.173,0.102 -0.359,0.18 -0.555,0.231 -1.427,0.365 -1.483,0.38 -50.635,-29.285 -4.547,-2.745 -9.466,-5.713 -14.66,-8.844 -14.75,-7.803 -29.938,-15.626 -44.227,-22.987 -53.534,-27.577 -83.924,-43.526 -86.016,-50.646 -0.364,-1.24 -0.05,-2.178 0.277,-2.745 0.324,-0.561 0.861,-0.962 1.513,-1.13 1.629,-0.422 4.098,-1.053 54.512,28.429 7.885,4.61 16.251,9.553 24.816,14.645 -26.469,-16.548 -53.802,-33.549 -77.325,-48.125 -0.979,-0.606 -1.299,-1.881 -0.723,-2.879 0.329,-0.57 0.985,-1.31 2.241,-1.6 6.391,-1.456 28.41,12.774 73.662,43.36 18.001,12.166 36.614,24.747 51.371,33.825 20.316,12.498 25.732,13.547 27.127,13.402 -0.236,-1.571 -4.042,-8.375 -42.253,-32.046 -3.409,0.446 -11.527,-4.598 -37.408,-22.199 -15.318,-8.803 -30.105,-17.043 -41.579,-23.438 -22.02,-12.27 -22.02,-12.27 -22.38,-13.576 -0.152,-0.551 -0.076,-1.158 0.21,-1.653 0.356,-0.618 1.067,-1.417 2.429,-1.729 0.867,-0.199 1.984,-0.132 3.343,0.185 -0.199,-0.392 -0.348,-0.765 -0.444,-1.119 -0.379,-1.412 -0.03,-2.451 0.33,-3.074 0.281,-0.487 0.744,-0.843 1.288,-0.992 0.194,-0.053 0.346,-0.094 0.519,-0.094 0.6,0 1.461,0.496 5.312,2.717 2.515,1.45 5.863,3.385 9.211,5.32 l 13.383,7.742 c 1.019,0.589 1.367,1.894 0.777,2.914 -0.59,1.019 -1.895,1.369 -2.914,0.777 -3.571,-2.067 -7.773,-4.498 -11.775,-6.811 10.49,6.13 24.586,15.608 41.645,27.232 0.419,0.285 0.842,0.573 1.266,0.862 5.202,3.021 10.27,5.931 14.955,8.621 17.617,10.115 22.146,12.822 23.479,14.293 24.951,15.405 42.854,28.29 44.681,34.908 0.444,1.608 0.058,2.775 -0.345,3.471 -0.367,0.637 -1.103,1.465 -2.522,1.792 -0.724,0.167 -1.618,0.16 -2.683,-0.008 3.93,2.499 7.579,4.829 10.942,6.981 2.662,1.705 5.151,3.306 7.462,4.797 26.041,15.119 42.328,26.911 44.663,34.859 0.681,2.321 0.124,4.022 -0.464,5.04 -0.322,0.56 -0.858,0.959 -1.509,1.125 -0.259,0.067 -0.556,0.145 -1.169,0.052 0.094,0.058 0.18,0.111 0.274,0.169 17.821,10.05 27.725,16.845 28.869,20.743 0.191,0.65 0.194,1.217 0.107,1.689 1.764,2.17 2.969,4.211 3.549,6.106 0.76,2.479 0.558,4.753 -0.6,6.757 -0.292,0.506 -0.789,0.877 -1.356,1.013 -0.262,0.064 -0.473,0.116 -0.878,0.003 6.125,4.244 9.631,7.577 10.377,10.073 0.01,0.031 0.019,0.062 0.027,0.093 5.766,4.667 9.452,8.844 10.57,12.425 0.699,2.244 0.518,4.31 -0.538,6.14 -0.404,0.699 -1.213,1.605 -2.782,1.954 -0.88,0.197 -1.995,0.162 -3.34,-0.097 5.714,4.964 9.424,9.517 10.706,13.584 0.904,2.871 0.673,5.52 -0.685,7.873 -0.127,0.22 -0.311,0.47 -0.574,0.704 2.678,3.018 3.716,5.067 4.168,6.611 0.478,1.636 0.356,3.096 -0.363,4.341"
             style="fill:#ff8080;fill-opacity:1;fill-rule:nonzero;stroke:none"
             id="path853" /></g></g></g></g></svg>
