<?xml version="1.0" encoding="UTF-8" standalone="no"?>
<svg
   xmlns:dc="http://purl.org/dc/elements/1.1/"
   xmlns:cc="http://creativecommons.org/ns#"
   xmlns:rdf="http://www.w3.org/1999/02/22-rdf-syntax-ns#"
   xmlns:svg="http://www.w3.org/2000/svg"
   xmlns="http://www.w3.org/2000/svg"
   version="1.1"
   id="svg833"
   xml:space="preserve"
   viewBox="0 0 1066.6667 1066.6667"><metadata
     id="metadata839"><rdf:RDF><cc:Work
         rdf:about=""><dc:format>image/svg+xml</dc:format><dc:type
           rdf:resource="http://purl.org/dc/dcmitype/StillImage" /><dc:title></dc:title></cc:Work></rdf:RDF></metadata><defs
     id="defs837"><clipPath
       clipPathUnits="userSpaceOnUse"
       id="clipPath849"><path
         d="M 0,800 H 800 V 0 H 0 Z"
         id="path847" /></clipPath></defs><g
     id="g841"
     transform="matrix(1.3333333,0,0,-1.3333333,0,1066.6667)"><g
       id="g843"
       style="fill:#87de87"><g
         id="g845"
         clip-path="url(#clipPath849)"
         style="fill:#87de87"><g
           id="g851"
           transform="translate(296.126,464.6104)"
           style="fill:#87de87"><path
             d="m 0,0 c 3.164,-3.164 3.164,-8.294 0,-11.459 -3.165,-3.164 -8.295,-3.164 -11.459,0 -3.165,3.165 -3.165,8.295 0,11.459 C -8.295,3.165 -3.165,3.165 0,0"
             style="fill:#87de87;fill-opacity:1;fill-rule:nonzero;stroke:none"
             id="path853" /></g><g
           id="g855"
           transform="translate(492.0186,384.3994)"
           style="fill:#87de87"><path
             d="m 0,0 -46.014,17.287 23.159,61.642 46.013,-17.287 z m -178.264,-152.439 -20.313,44.759 79.676,36.159 20.313,-44.761 z m -44.147,205.839 -1.652,33.8 c -0.268,5.477 4.246,9.99 9.723,9.723 l 33.799,-1.652 c 2.422,-0.119 4.714,-1.134 6.429,-2.85 l 50.218,-50.218 c 3.871,-3.87 3.871,-10.146 0,-14.017 l -31.433,-31.433 c -3.87,-3.87 -10.146,-3.87 -14.017,0 l -50.218,50.219 c -1.715,1.715 -2.73,4.007 -2.849,6.428 m 69.088,131.393 c 0,0.343 0.28,0.623 0.622,0.623 h 121.365 c 0.343,0 0.621,-0.28 0.621,-0.623 v -53.529 h -122.608 z m 161.182,0 c 0,21.613 -17.583,39.196 -39.195,39.196 h -121.365 c -21.612,0 -39.195,-17.583 -39.195,-39.196 v -53.529 h -63.261 V -192.788 H 71.12 V 131.264 H 7.859 Z"
             style="fill:#87de87;fill-opacity:1;fill-rule:nonzero;stroke:none"
             id="path857" /></g><g
           id="g859"
           transform="translate(135,473.1011)"
           style="fill:#87de87"><path
             d="m 0,0 v -238.927 c 0,-23.409 19.153,-42.563 42.562,-42.563 H 70.754 V 42.562 H 42.562 C 19.153,42.562 0,23.409 0,0"
             style="fill:#87de87;fill-opacity:1;fill-rule:nonzero;stroke:none"
             id="path861" /></g><g
           id="g863"
           transform="translate(622.4385,515.6631)"
           style="fill:#87de87"><path
             d="M 0,0 H -28.192 V -324.052 H 0 c 23.408,0 42.562,19.154 42.562,42.563 V -42.562 C 42.562,-19.153 23.408,0 0,0"
             style="fill:#87de87;fill-opacity:1;fill-rule:nonzero;stroke:none"
             id="path865" /></g></g></g></g></svg>
